<svg xmlns="http://www.w3.org/2000/svg" xmlns:xlink="http://www.w3.org/1999/xlink" width="28" height="29" viewBox="0 0 28 29">
  <defs>
    <clipPath id="clip-action-icon">
      <rect width="28" height="29"/>
    </clipPath>
  </defs>
  <g id="action-icon" clip-path="url(#clip-action-icon)">
    <g id="analysis" transform="translate(-2 -2)">
      <path id="Path_335" data-name="Path 335" d="M42,2a6,6,0,0,0-1.845,11.7v5.368a1.845,1.845,0,1,0,3.69,0V13.7A6,6,0,0,0,42,2Zm0,17.991a.924.924,0,0,1-.923-.923V15.839H42.92v3.229A.924.924,0,0,1,42,19.991Zm.923-5.074H41.074v-1a5.466,5.466,0,0,0,1.845,0ZM42,13.071A5.074,5.074,0,1,1,47.071,8,5.08,5.08,0,0,1,42,13.071Z" transform="translate(-18.316)" fill="#fff"/>
      <path id="Path_336" data-name="Path 336" d="M47.027,8.923a.741.741,0,0,1,.411,1.357l-.849.566a.462.462,0,0,0-.205.384v.923h.923v-.676l.644-.429A1.663,1.663,0,0,0,47.027,8h-.364A1.665,1.665,0,0,0,45,9.663h.923a.741.741,0,0,1,.74-.74Z" transform="translate(-23.164 -3.232)" fill="#fff"/>
      <path id="Path_337" data-name="Path 337" d="M48,19h.923v.923H48Z" transform="translate(-24.78 -9.158)" fill="#fff"/>
      <path id="Path_338" data-name="Path 338" d="M27.3,45v4.152H12.074a.461.461,0,0,0-.461.461v.461a1.845,1.845,0,0,1-3.69,0v-3.69H7v3.69a2.771,2.771,0,0,0,2.768,2.768H27.759a3.233,3.233,0,0,0,3.229-3.229.461.461,0,0,0-.461-.461H28.22V45Zm.461,6.92H11.829a2.757,2.757,0,0,0,.707-1.845H30.019a2.31,2.31,0,0,1-2.26,1.845Z" transform="translate(-2.693 -23.164)" fill="#fff"/>
      <path id="Path_339" data-name="Path 339" d="M2.461,2.923A1.847,1.847,0,0,1,4.307,4.768V18.146h.923V4.768a2.757,2.757,0,0,0-.707-1.845H19.53V2H2.461a.461.461,0,1,0,0,.923Z" fill="#fff"/>
      <path id="Path_340" data-name="Path 340" d="M21.5,26.457,18.62,30.9a1.358,1.358,0,0,0-.32-.041,1.372,1.372,0,0,0-.875.321l-4.688-2.813A1.384,1.384,0,1,0,10,28.091a1.361,1.361,0,0,0,.139.593L5.98,32.84l.012.012a1.366,1.366,0,0,0-.608-.147,1.384,1.384,0,1,0,1.384,1.384,1.366,1.366,0,0,0-.147-.608l.012.012,4.155-4.155a1.347,1.347,0,0,0,1.468-.182l4.688,2.813a1.384,1.384,0,1,0,2.74.275,1.369,1.369,0,0,0-.292-.84l2.877-4.446ZM5.384,34.55a.461.461,0,1,1,.461-.461A.462.462,0,0,1,5.384,34.55Zm6-6a.461.461,0,1,1,.461-.461A.462.462,0,0,1,11.381,28.553ZM18.3,32.7a.461.461,0,1,1,.461-.461A.462.462,0,0,1,18.3,32.7Z" transform="translate(-1.077 -13.175)" fill="#fff"/>
      <path id="Path_341" data-name="Path 341" d="M13,10h9.226v.923H13Z" transform="translate(-5.926 -4.31)" fill="#fff"/>
      <path id="Path_342" data-name="Path 342" d="M13,15h9.226v.923H13Z" transform="translate(-5.926 -7.003)" fill="#fff"/>
      <path id="Path_343" data-name="Path 343" d="M13,20h9.226v.923H13Z" transform="translate(-5.926 -9.696)" fill="#fff"/>
      <path id="Path_344" data-name="Path 344" d="M13,46H28.684v.923H13Z" transform="translate(-5.926 -23.703)" fill="#fff"/>
      <path id="Path_345" data-name="Path 345" d="M49,5v.923A3.69,3.69,0,0,1,49,13.3v.923A4.613,4.613,0,1,0,49,5Z" transform="translate(-25.319 -1.616)" fill="#fff"/>
      <path id="Path_346" data-name="Path 346" d="M16,50h1.845v.923H16Z" transform="translate(-7.542 -25.857)" fill="#fff"/>
      <path id="Path_347" data-name="Path 347" d="M28,50h1.845v.923H28Z" transform="translate(-14.006 -25.857)" fill="#fff"/>
      <path id="Path_348" data-name="Path 348" d="M40,50h1.845v.923H40Z" transform="translate(-20.47 -25.857)" fill="#fff"/>
    </g>
  </g>
</svg>
