<svg xmlns="http://www.w3.org/2000/svg" xmlns:xlink="http://www.w3.org/1999/xlink" width="472" height="438" viewBox="0 0 472 438">
  <defs>
    <clipPath id="clip-ca-illustration_">
      <rect width="472" height="438"/>
    </clipPath>
  </defs>
  <g id="ca-illustration_" data-name="ca-illustration " clip-path="url(#clip-ca-illustration_)">
    <path id="Path_551" data-name="Path 551" d="M-2683.715,3016.19c-19.615,4.527-227.83,69.405-248.954-42.247s-73.932-122.214-10.562-203.689,286.674-108.634,319.868-55.826,211.233,242.918,61.861,270.077S-2683.715,3016.19-2683.715,3016.19Z" transform="translate(2974 -2606.48)" fill="#eceffe"/>
    <g id="group" transform="translate(80.367 20.317)">
      <path id="Path_515" data-name="Path 515" d="M343.921,177.507V133a27.565,27.565,0,0,0-19.764-26.565L288.45,95.72V87.294a38.787,38.787,0,0,0,16.641-31.817V38.83a38.83,38.83,0,0,0-77.66,0V55.471a38.772,38.772,0,0,0,16.641,31.817v8.426L212.6,105.157a64.105,64.105,0,0,0-84.545-.97L99.848,95.72V87.294a38.787,38.787,0,0,0,16.641-31.817V38.83a38.83,38.83,0,0,0-77.659,0V55.471A38.772,38.772,0,0,0,55.471,87.288v8.426L19.764,106.427A27.576,27.576,0,0,0,0,133v44.51H11.094V133a16.53,16.53,0,0,1,11.861-15.937l35.718-10.718c3.229,4.193,9.475,10.146,18.987,10.146s15.758-5.953,18.987-10.146l22.749,6.823A64.026,64.026,0,0,0,105.9,145.395,38.777,38.777,0,0,0,38.83,171.96V188.6a38.772,38.772,0,0,0,16.641,31.817v8.426L19.764,239.557A27.576,27.576,0,0,0,0,266.128v50.057H66.565a5.558,5.558,0,0,1,5.547,5.547V343.92h199.7V321.732a5.558,5.558,0,0,1,5.547-5.547h66.565V266.128a27.565,27.565,0,0,0-19.764-26.565L288.45,228.851v-8.426a38.787,38.787,0,0,0,16.641-31.817V171.966a38.8,38.8,0,0,0-66.565-27.126v-5.257a29.829,29.829,0,0,0-15.244-26.032l23.992-7.2c3.229,4.187,9.475,10.141,18.987,10.141s15.758-5.953,18.987-10.146l35.723,10.718A16.532,16.532,0,0,1,332.826,133v44.51ZM77.659,11.094A27.768,27.768,0,0,1,105.4,38.83H79.956a13.484,13.484,0,0,1-9.469-3.922l-3.922-3.922-3.922,3.922a13.483,13.483,0,0,1-9.469,3.922h-3.25A27.768,27.768,0,0,1,77.659,11.094ZM49.924,55.471V49.924h3.25a24.293,24.293,0,0,0,13.391-3.976,24.293,24.293,0,0,0,13.391,3.976H105.4v5.547a27.736,27.736,0,0,1-55.471,0ZM77.659,105.4c-5.9,0-9.718-4.954-11.094-7.072V92.67a38.5,38.5,0,0,0,22.188-.005v5.653c-1.376,2.129-5.2,7.077-11.094,7.077Zm152.478,97.361a39,39,0,0,0,13.935,17.668v8.426l-35.7,10.712a27.238,27.238,0,0,0-3.434,1.308l-5.241-1.208V228.734a44.609,44.609,0,0,0,13.47-18.193,27.625,27.625,0,0,0,16.972-7.784ZM171.96,238.526a44.072,44.072,0,0,0,16.641-3.267v6.04L171.96,253.78,155.319,241.3v-6.04a44.072,44.072,0,0,0,16.641,3.267Zm-23.453,11.533L162.031,260.2l-13.911,8.348L144.6,250.963ZM165.831,294H178.09l4.315,38.83H161.516ZM179.054,282.9H164.861l-3.185-9.553,10.284-6.167,10.279,6.167Zm2.836-22.7,13.524-10.146,3.906.9L195.8,268.547Zm41.216-65.956a16.636,16.636,0,0,1-7.007,4.483,44.984,44.984,0,0,0,.238-4.583V167.6a16.749,16.749,0,0,1,11.01,13.792,16.547,16.547,0,0,1-4.242,12.852Zm-17.863-.1a33.283,33.283,0,0,1-66.565,0V166.413H157.51a71.339,71.339,0,0,0,34.369-8.781l4.388,8.781h8.976Zm-77.421,4.583a16.4,16.4,0,0,1-.238-31.121v26.538a44.984,44.984,0,0,0,.238,4.583Zm2.933,11.809a44.513,44.513,0,0,0,13.47,18.193v10.929l-5.241,1.208a28.707,28.707,0,0,0-3.429-1.308L99.848,228.851v-8.426a39.035,39.035,0,0,0,13.936-17.668,27.624,27.624,0,0,0,16.972,7.784Zm-53.1-66.316A27.768,27.768,0,0,1,105.4,171.96h-3.25a13.484,13.484,0,0,1-9.469-3.922l-3.922-3.922-3.922,3.922a13.484,13.484,0,0,1-9.469,3.922H49.924a27.768,27.768,0,0,1,27.736-27.736ZM49.924,188.6v-5.547H75.363a24.293,24.293,0,0,0,13.391-3.976,24.293,24.293,0,0,0,13.391,3.976h3.25V188.6a27.736,27.736,0,0,1-55.471,0Zm27.736,38.83A38.6,38.6,0,0,0,88.754,225.8v5.653c-1.376,2.129-5.2,7.077-11.094,7.077s-9.718-4.954-11.094-7.072V225.8A38.781,38.781,0,0,0,77.66,227.431ZM66.565,305.091H44.377v-38.83H33.283v38.83H11.094V266.128a16.53,16.53,0,0,1,11.861-15.937l35.718-10.718c3.229,4.193,9.475,10.146,18.987,10.146s15.758-5.953,18.987-10.146l21.035,6.314-15.471,3.567a38.658,38.658,0,0,0-30.1,37.836V294H83.207V287.19a27.616,27.616,0,0,1,21.5-27.026l29.079-6.712,6.538,32.706,11.606-6.961,3.283,9.851-4.859,43.778H122.036V288.449H110.942v44.377H83.207V321.732a16.663,16.663,0,0,0-16.641-16.641Zm254.4-54.9a16.53,16.53,0,0,1,11.861,15.937v38.962H310.638v-38.83H299.544v38.83H277.356a16.663,16.663,0,0,0-16.641,16.641v11.094H232.979V288.449H221.885v44.377H193.567L188.7,289.048l3.283-9.851,11.606,6.961,6.538-32.706,29.084,6.712a27.616,27.616,0,0,1,21.5,27.026V294h11.094V287.19a38.658,38.658,0,0,0-30.1-37.836l-15.471-3.567,21.035-6.314c3.229,4.193,9.475,10.146,18.987,10.146s15.758-5.953,18.987-10.146Zm-43.61-18.738c-1.376,2.124-5.2,7.072-11.094,7.072s-9.735-4.97-11.094-7.072V225.8a38.435,38.435,0,0,0,22.188,0Zm-11.094-15.116A27.768,27.768,0,0,1,238.526,188.6v-5.547h3.25a24.293,24.293,0,0,0,13.391-3.976,24.293,24.293,0,0,0,13.391,3.976H294V188.6A27.768,27.768,0,0,1,266.262,216.337Zm0-72.112A27.768,27.768,0,0,1,294,171.96H268.558a13.484,13.484,0,0,1-9.469-3.922l-3.922-3.922-3.922,3.922a13.483,13.483,0,0,1-9.469,3.922h-3.25a27.768,27.768,0,0,1,27.736-27.736Zm-38.83,17.113a29.142,29.142,0,0,0-17.595-6.018h-6.712L196.3,141.673l-5.228,3.483a60.308,60.308,0,0,1-33.564,10.163H134.084a29.142,29.142,0,0,0-17.595,6.018v-8.2a53.29,53.29,0,0,1,90.967-37.681l5.886,5.886,1.243.417a18.767,18.767,0,0,1,12.847,17.822Zm38.83-150.243A27.768,27.768,0,0,1,294,38.83h-3.25a13.484,13.484,0,0,1-9.469-3.922l-3.922-3.922-3.922,3.922a13.483,13.483,0,0,1-9.469,3.922H238.526a27.768,27.768,0,0,1,27.736-27.736ZM238.526,55.471V49.924h25.439a24.293,24.293,0,0,0,13.391-3.976,24.293,24.293,0,0,0,13.391,3.976H294v5.547a27.736,27.736,0,0,1-55.471,0Zm27.736,49.924c-5.907,0-9.735-4.97-11.094-7.072V92.665a38.436,38.436,0,0,0,22.188,0v5.653c-1.376,2.129-5.2,7.077-11.094,7.077Zm0,0" transform="translate(0 0)" fill="#6f43ff"/>
      <path id="Path_516" data-name="Path 516" d="M184,0h11.094V11.094H184Zm0,0" transform="translate(-56.416)" fill="#6f43ff"/>
      <path id="Path_517" data-name="Path 517" d="M184,32h11.094V93.018H184Zm0,0" transform="translate(-56.416 -9.812)" fill="#6f43ff"/>
      <path id="Path_518" data-name="Path 518" d="M296,0h11.094V11.094H296Zm0,0" transform="translate(-90.757)" fill="#6f43ff"/>
      <path id="Path_519" data-name="Path 519" d="M296,32h11.094V93.018H296Zm0,0" transform="translate(-90.757 -9.812)" fill="#6f43ff"/>
      <path id="Path_520" data-name="Path 520" d="M216,32h11.094V70.83H216Zm0,0" transform="translate(-66.228 -9.812)" fill="#6f43ff"/>
      <path id="Path_521" data-name="Path 521" d="M216,104h11.094v11.094H216Zm0,0" transform="translate(-66.228 -31.888)" fill="#6f43ff"/>
      <path id="Path_522" data-name="Path 522" d="M264,32h11.094V70.83H264Zm0,0" transform="translate(-80.945 -9.812)" fill="#6f43ff"/>
      <path id="Path_523" data-name="Path 523" d="M264,104h11.094v11.094H264Zm0,0" transform="translate(-80.945 -31.888)" fill="#6f43ff"/>
    </g>
  </g>
</svg>
