<svg xmlns="http://www.w3.org/2000/svg" xmlns:xlink="http://www.w3.org/1999/xlink" width="23" height="21" viewBox="0 0 23 21">
  <defs>
    <clipPath id="clip-ca-icon">
      <rect width="23" height="21"/>
    </clipPath>
  </defs>
  <g id="ca-icon" clip-path="url(#clip-ca-icon)">
    <g id="group" transform="translate(1.367 0.317)">
      <path id="Path_515" data-name="Path 515" d="M20.683,10.675V8a1.658,1.658,0,0,0-1.189-1.6l-2.147-.644V5.25a2.333,2.333,0,0,0,1-1.913v-1a2.335,2.335,0,0,0-4.67,0v1a2.332,2.332,0,0,0,1,1.913v.507l-1.892.568A3.855,3.855,0,0,0,7.7,6.266L6,5.757V5.25a2.333,2.333,0,0,0,1-1.913v-1a2.335,2.335,0,0,0-4.67,0v1a2.332,2.332,0,0,0,1,1.913v.507L1.189,6.4A1.658,1.658,0,0,0,0,8v2.677H.667V8A.994.994,0,0,1,1.38,7.04L3.528,6.4a1.451,1.451,0,0,0,1.142.61A1.451,1.451,0,0,0,5.812,6.4l1.368.41a3.85,3.85,0,0,0-.811,1.938,2.332,2.332,0,0,0-4.034,1.6v1a2.332,2.332,0,0,0,1,1.913v.507l-2.147.644A1.658,1.658,0,0,0,0,16v3.01H4a.334.334,0,0,1,.334.334v1.334h12.01V19.349a.334.334,0,0,1,.334-.334h4V16a1.658,1.658,0,0,0-1.189-1.6l-2.147-.644v-.507a2.333,2.333,0,0,0,1-1.913v-1a2.333,2.333,0,0,0-4-1.631V8.394a1.794,1.794,0,0,0-.917-1.566L14.871,6.4a1.374,1.374,0,0,0,2.284,0L19.3,7.04A.994.994,0,0,1,20.016,8v2.677ZM4.67.667A1.67,1.67,0,0,1,6.338,2.335H4.808A.811.811,0,0,1,4.239,2.1L4,1.864,3.767,2.1a.811.811,0,0,1-.569.236H3A1.67,1.67,0,0,1,4.67.667ZM3,3.336V3h.2A1.461,1.461,0,0,0,4,2.763,1.461,1.461,0,0,0,4.808,3h1.53v.334A1.668,1.668,0,0,1,3,3.336Zm1.668,3A.854.854,0,0,1,4,5.913v-.34a2.315,2.315,0,0,0,1.334,0v.34A.852.852,0,0,1,4.67,6.338Zm9.17,5.855a2.345,2.345,0,0,0,.838,1.063v.507l-2.147.644a1.638,1.638,0,0,0-.207.079l-.315-.073v-.657a2.683,2.683,0,0,0,.81-1.094,1.661,1.661,0,0,0,1.021-.468Zm-3.5,2.151a2.65,2.65,0,0,0,1-.2v.363l-1,.751-1-.751v-.363a2.65,2.65,0,0,0,1,.2Zm-1.41.694.813.61-.837.5L8.7,15.093Zm1.042,2.642h.737l.259,2.335H9.713Zm.8-.667H9.915l-.192-.575.618-.371.618.371Zm.171-1.365.813-.61.235.054-.212,1.058Zm2.479-3.967a1,1,0,0,1-.421.27,2.705,2.705,0,0,0,.014-.276v-1.6a1.007,1.007,0,0,1,.662.829A1,1,0,0,1,13.417,11.682Zm-1.074-.006a2,2,0,0,1-4,0V10.008H9.473a4.29,4.29,0,0,0,2.067-.528l.264.528h.54Zm-4.656.276a.986.986,0,0,1-.014-1.872v1.6a2.705,2.705,0,0,0,.014.276Zm.176.71a2.677,2.677,0,0,0,.81,1.094v.657l-.315.073a1.726,1.726,0,0,0-.206-.079L6,13.763v-.507a2.348,2.348,0,0,0,.838-1.063,1.661,1.661,0,0,0,1.021.468ZM4.67,8.674a1.67,1.67,0,0,1,1.668,1.668h-.2a.811.811,0,0,1-.569-.236L5.338,9.87l-.236.236a.811.811,0,0,1-.569.236H3A1.67,1.67,0,0,1,4.67,8.674ZM3,11.342v-.334h1.53a1.461,1.461,0,0,0,.805-.239,1.461,1.461,0,0,0,.805.239h.2v.334a1.668,1.668,0,1,1-3.336,0ZM4.67,13.678a2.321,2.321,0,0,0,.667-.1v.34a.852.852,0,0,1-.667.426A.854.854,0,0,1,4,13.92v-.34A2.332,2.332,0,0,0,4.67,13.678ZM4,18.348H2.669V16.013H2v2.335H.667V16a.994.994,0,0,1,.713-.958L3.528,14.4a1.451,1.451,0,0,0,1.142.61,1.451,1.451,0,0,0,1.142-.61l1.265.38L6.147,15a2.325,2.325,0,0,0-1.81,2.275v.409H5v-.409A1.661,1.661,0,0,1,6.3,15.646l1.749-.4.393,1.967.7-.419.2.592-.292,2.633h-1.7V17.347H6.672v2.669H5v-.667a1,1,0,0,0-1-1Zm15.3-3.3a.994.994,0,0,1,.713.958v2.343H18.682V16.013h-.667v2.335H16.68a1,1,0,0,0-1,1v.667H14.011V17.347h-.667v2.669h-1.7l-.293-2.633.2-.592.7.419.393-1.967,1.749.4a1.661,1.661,0,0,1,1.293,1.625v.409h.667v-.409A2.325,2.325,0,0,0,14.536,15l-.93-.215,1.265-.38a1.373,1.373,0,0,0,2.284,0ZM16.68,13.92a.736.736,0,0,1-1.334,0v-.34a2.311,2.311,0,0,0,1.334,0Zm-.667-.909a1.67,1.67,0,0,1-1.668-1.668v-.334h.2a1.461,1.461,0,0,0,.805-.239,1.461,1.461,0,0,0,.805.239h1.53v.334A1.67,1.67,0,0,1,16.013,13.01Zm0-4.337a1.67,1.67,0,0,1,1.668,1.668h-1.53a.811.811,0,0,1-.569-.236l-.236-.236-.236.236a.811.811,0,0,1-.569.236h-.2a1.67,1.67,0,0,1,1.668-1.668ZM13.678,9.7a1.753,1.753,0,0,0-1.058-.362h-.4l-.41-.821-.314.209a3.627,3.627,0,0,1-2.019.611H8.064A1.753,1.753,0,0,0,7.006,9.7V9.209a3.2,3.2,0,0,1,5.471-2.266l.354.354.075.025a1.129,1.129,0,0,1,.773,1.072ZM16.013.667a1.67,1.67,0,0,1,1.668,1.668h-.2a.811.811,0,0,1-.569-.236l-.236-.236-.236.236a.811.811,0,0,1-.569.236h-1.53A1.67,1.67,0,0,1,16.013.667ZM14.345,3.336V3h1.53a1.461,1.461,0,0,0,.805-.239A1.461,1.461,0,0,0,17.485,3h.2v.334a1.668,1.668,0,0,1-3.336,0Zm1.668,3a.853.853,0,0,1-.667-.425v-.34a2.311,2.311,0,0,0,1.334,0v.34a.852.852,0,0,1-.667.426Zm0,0" transform="translate(0 0)" fill="#fff"/>
      <path id="Path_516" data-name="Path 516" d="M184,0h.667V.667H184Zm0,0" transform="translate(-176.327)" fill="#fff"/>
      <path id="Path_517" data-name="Path 517" d="M184,32h.667v3.67H184Zm0,0" transform="translate(-176.327 -30.666)" fill="#fff"/>
      <path id="Path_518" data-name="Path 518" d="M296,0h.667V.667H296Zm0,0" transform="translate(-283.657)" fill="#fff"/>
      <path id="Path_519" data-name="Path 519" d="M296,32h.667v3.67H296Zm0,0" transform="translate(-283.657 -30.666)" fill="#fff"/>
      <path id="Path_520" data-name="Path 520" d="M216,32h.667v2.335H216Zm0,0" transform="translate(-206.993 -30.666)" fill="#fff"/>
      <path id="Path_521" data-name="Path 521" d="M216,104h.667v.667H216Zm0,0" transform="translate(-206.993 -99.663)" fill="#fff"/>
      <path id="Path_522" data-name="Path 522" d="M264,32h.667v2.335H264Zm0,0" transform="translate(-252.991 -30.666)" fill="#fff"/>
      <path id="Path_523" data-name="Path 523" d="M264,104h.667v.667H264Zm0,0" transform="translate(-252.991 -99.663)" fill="#fff"/>
    </g>
  </g>
</svg>
