<svg xmlns="http://www.w3.org/2000/svg" xmlns:xlink="http://www.w3.org/1999/xlink" width="23" height="21" viewBox="0 0 23 21">
  <defs>
    <clipPath id="clip-clm-icon">
      <rect width="23" height="21"/>
    </clipPath>
  </defs>
  <g id="clm-icon" clip-path="url(#clip-clm-icon)">
    <g id="employee" transform="translate(0.223 0)">
      <g id="Group_80" data-name="Group 80" transform="translate(0 0)">
        <path id="Path_406" data-name="Path 406" d="M22.443,33.988a.331.331,0,0,0-.334.328v2.194a.056.056,0,0,1-.056.055H20.786v-4.8a.334.334,0,0,0-.667,0v4.8h-2.45l.663-.718a.52.52,0,0,0,.129-.421l0-.01-.745-4.335.137-.2.036.025a.528.528,0,0,0,.429.08.52.52,0,0,0,.341-.269h0l.758-1.5,1.733.66a1.637,1.637,0,0,1,.962,1.482v1.423a.334.334,0,0,0,.667,0V31.361a2.3,2.3,0,0,0-1.377-2.09l-.006,0-2.95-1.125v-.6a2.391,2.391,0,0,0,.881-1.489,1.173,1.173,0,0,0,.62-.269,1.118,1.118,0,0,0,.14-1.572v-.886a3.174,3.174,0,0,0-3.2-3.145,3.21,3.21,0,0,0-2.074.755,1.119,1.119,0,0,0-.258-.683v-.886a3.2,3.2,0,0,0-6.391,0v.909a1.062,1.062,0,0,0-.258.658,3.2,3.2,0,0,0-1.258-.649.334.334,0,0,0-.408.234.328.328,0,0,0,.238.4,2.5,2.5,0,0,1,1.882,2.406v.491L8.3,23.809a.375.375,0,0,0-.08-.222c-.085-.121-.239-.271-.732-.793a.534.534,0,0,0-.676-.081,4.825,4.825,0,0,1-2.824.765.534.534,0,0,0-.587.336l-.094.019v-.5a2.51,2.51,0,0,1,1.8-2.383.328.328,0,0,0,.223-.409.335.335,0,0,0-.416-.22,3.221,3.221,0,0,0-1.629,1.119,3.085,3.085,0,0,0-.643,1.893v.909a1.06,1.06,0,0,0-.259.692A1.14,1.14,0,0,0,3.4,26.056a2.419,2.419,0,0,0,.93,1.528v.56L1.383,29.268l-.006,0A2.294,2.294,0,0,0,0,31.361v5.151a.719.719,0,0,0,.724.712H11a.727.727,0,0,0,.39-.113.727.727,0,0,0,.39.113H22.053a.719.719,0,0,0,.724-.712V34.317A.331.331,0,0,0,22.443,33.988ZM3.368,25.378a.475.475,0,0,1-.321-.447.486.486,0,0,1,.321-.427Zm15.422,3.6-.655,1.292-.738-.516.819-.995Zm-1.875.319-.863-1.048v-.315a2.73,2.73,0,0,0,.867.14h0a2.5,2.5,0,0,0,.857-.153v.331Zm.392,1.2-.123.182h-.538l-.123-.182.392-.274Zm-5.919-5.16-.863-1.048v-.315a2.729,2.729,0,0,0,.867.14h0a2.5,2.5,0,0,0,.857-.153v.331Zm.392,1.2-.123.182h-.538L11,26.539l.392-.274ZM8.76,22.065a1.21,1.21,0,0,0,.167.031,2.419,2.419,0,0,0,.93,1.528v.56l-.681.26a1.123,1.123,0,0,0-.147-.229v-.886A3.1,3.1,0,0,0,8.76,22.065Zm4.4-.348a1.8,1.8,0,0,1-3.6,0V20.179a5.53,5.53,0,0,0,3.043-.814c.3.318.48.5.555.588C13.161,20.77,13.161,21.086,13.161,21.717Zm.637.379a1.217,1.217,0,0,0,.167-.032,3.085,3.085,0,0,0-.27,1.264v.909a1.12,1.12,0,0,0-.132.192l-.645-.246v-.6A2.391,2.391,0,0,0,13.8,22.1ZM10.085,24.8l.819,1-.559.391h0l-.177.124-.655-1.292Zm2.07.647.533-.648.574.219-.655,1.292-.178-.124h0l-.56-.391Zm.168,1.47.036.025a.528.528,0,0,0,.429.08.52.52,0,0,0,.341-.269h0l.563-1.111a1.176,1.176,0,0,0,.761.413,2.382,2.382,0,0,0,.931,1.527v.56l-2.837,1.083-.362-2.1Zm3.289,1.842.819,1-.737.515L15.04,28.98Zm3.075-3.085a1.8,1.8,0,0,1-3.6,0V24.138a5.532,5.532,0,0,0,3.043-.814c.3.318.48.5.555.588C18.688,24.73,18.688,25.045,18.688,25.677Zm.988-.747a.475.475,0,0,1-.321.447v-.893A.474.474,0,0,1,19.676,24.93Zm-5.315-1.6a2.528,2.528,0,0,1,5.056,0v.491l-.062-.011a.375.375,0,0,0-.08-.222c-.088-.124-.239-.272-.732-.793a.534.534,0,0,0-.676-.081,4.834,4.834,0,0,1-2.849.764.525.525,0,0,0-.562.337l-.094.019v-.5Zm.062,1.174v.874a.474.474,0,0,1-.321-.447A.486.486,0,0,1,14.422,24.5Zm-.274-3.532a.469.469,0,0,1-.167.359.5.5,0,0,1-.154.088v-.893A.474.474,0,0,1,14.148,20.971Zm-2.787-4.09a2.511,2.511,0,0,1,2.528,2.488v.491l-.062-.011a.394.394,0,0,0-.094-.242c-.089-.119-.254-.283-.717-.773a.534.534,0,0,0-.676-.081,4.823,4.823,0,0,1-2.876.763.531.531,0,0,0-.535.339l-.094.019v-.5h0A2.511,2.511,0,0,1,11.361,16.881ZM8.895,20.543v.875a.475.475,0,0,1-.321-.447A.486.486,0,0,1,8.895,20.543ZM8.3,24.484a.472.472,0,0,1,0,.893ZM8.27,26.057a1.174,1.174,0,0,0,.793-.453l.584,1.151h0a.52.52,0,0,0,.341.269.529.529,0,0,0,.429-.08l.036-.025.137.2-.362,2.1L7.389,28.143v-.6h0A2.393,2.393,0,0,0,8.27,26.057ZM5.86,29.3,5,28.25v-.315a2.728,2.728,0,0,0,.867.14h0a2.5,2.5,0,0,0,.857-.153v.331Zm.392,1.2-.123.182H5.591L5.469,30.5l.392-.274Zm.909-1.737.574.219L7.08,30.272,6.9,30.148h0l-.56-.391ZM4.035,25.677V24.138a5.535,5.535,0,0,0,3.043-.814c.3.315.48.5.555.588v1.765a1.759,1.759,0,0,1-1.769,1.741A1.768,1.768,0,0,1,4.035,25.677Zm.523,3.085.819,1-.559.391h0l-.177.124L3.985,28.98Zm-1.9,7.8v-4.8a.334.334,0,0,0-.667,0v4.8H.724a.056.056,0,0,1-.056-.055V31.361a1.637,1.637,0,0,1,.961-1.482l1.731-.661.759,1.5h0a.52.52,0,0,0,.341.269.528.528,0,0,0,.429-.08l.036-.025.137.2-.745,4.335,0,.01a.52.52,0,0,0,.129.421l.663.718H2.659Zm2.327-1.108.709-4.122h.332l.709,4.122-.875.947Zm6.069,1.052a.056.056,0,0,1-.056.055H9.731v-4.8a.334.334,0,0,0-.667,0v4.8H6.614l.663-.718a.52.52,0,0,0,.129-.421l0-.01-.745-4.335.137-.2.036.025a.527.527,0,0,0,.77-.19h0l.758-1.5,1.733.66a1.63,1.63,0,0,1,.962,1.482v5.151Zm.334-6.344a2.351,2.351,0,0,0-.544-.6l.377-2.194h.332l.377,2.2A2.353,2.353,0,0,0,11.388,30.167Zm2.325,6.4h0v-4.8a.334.334,0,0,0-.667,0v4.8H11.778a.056.056,0,0,1-.056-.055V31.361a1.555,1.555,0,0,1,.389-1.052,1.794,1.794,0,0,1,.572-.43l1.731-.661.759,1.5h0a.52.52,0,0,0,.341.269.528.528,0,0,0,.429-.08l.036-.025.137.2-.745,4.335,0,.01a.52.52,0,0,0,.129.421l.663.718H13.713Zm2.327-1.108.709-4.122h.332l.709,4.122-.875.947Z" transform="translate(0 -16.224)" fill="#fff"/>
      </g>
    </g>
  </g>
</svg>
