<svg xmlns="http://www.w3.org/2000/svg" xmlns:xlink="http://www.w3.org/1999/xlink" width="472" height="438" viewBox="0 0 472 438">
  <defs>
    <clipPath id="clip-clm-illustration-1">
      <rect width="472" height="438"/>
    </clipPath>
  </defs>
  <g id="clm-illustration-1" clip-path="url(#clip-clm-illustration-1)">
    <g id="Group_236" data-name="Group 236" transform="translate(7 24)">
      <path id="Path_552" data-name="Path 552" d="M-2682.71,3017.331c-19.682,4.542-228.621,69.646-249.818-42.393s-74.188-122.637-10.6-204.4,287.669-109.011,320.978-56.02,211.966,243.761,62.076,271.014S-2682.71,3017.331-2682.71,3017.331Z" transform="translate(2973 -2612.422)" fill="#eceffe"/>
      <g id="employee" transform="translate(26.223 0)">
        <g id="Group_80" data-name="Group 80" transform="translate(0 0)">
          <path id="Path_406" data-name="Path 406" d="M427.786,360.212a6.359,6.359,0,0,0-6.36,6.36v42.493a1.072,1.072,0,0,1-1.071,1.071H396.191V317.221a6.36,6.36,0,1,0-12.719,0v92.915h-46.7l12.639-13.9a10.169,10.169,0,0,0,2.462-8.16c-.009-.064-.019-.126-.03-.19L337.64,303.94l2.614-3.935.681.483a9.955,9.955,0,0,0,14.672-3.67h0l14.457-28.975,33.023,12.789c1.3.566,18.337,8.377,18.337,28.7v27.561a6.36,6.36,0,0,0,12.72,0V309.332c0-29.347-25.171-40.032-26.242-40.473l-.121-.048-56.233-21.778V235.449a46.438,46.438,0,0,0,16.793-28.842,22.194,22.194,0,0,0,11.81-5.2,21.9,21.9,0,0,0,2.668-30.445V153.8a60.856,60.856,0,0,0-100.433-46.278,21.861,21.861,0,0,0-4.921-13.234V77.129a60.9,60.9,0,1,0-121.809,0V94.736a20.745,20.745,0,0,0-4.918,12.732A60.632,60.632,0,0,0,126.751,94.9a6.36,6.36,0,1,0-3.24,12.3A48.2,48.2,0,0,1,159.39,153.8v9.511c-.275-.057-1.157-.209-1.191-.214a7.324,7.324,0,0,0-1.52-4.3c-1.628-2.339-4.552-5.254-13.955-15.361a10.053,10.053,0,0,0-12.885-1.57c-16.107,10.521-35.674,15.884-53.834,14.818-5.915-.347-9.61,2.252-11.184,6.511-.141.023-1.714.34-1.8.361V153.8a48.494,48.494,0,0,1,34.266-46.135,6.36,6.36,0,1,0-3.669-12.179,61.389,61.389,0,0,0-31.053,21.663A60.355,60.355,0,0,0,50.3,153.8v17.608a20.725,20.725,0,0,0-4.936,13.405,21.958,21.958,0,0,0,19.45,21.8A46.976,46.976,0,0,0,82.535,236.2v10.838l-56.17,21.777-.12.047C25.172,269.3,0,279.983,0,309.331v99.734a13.806,13.806,0,0,0,13.792,13.791H209.641a13.7,13.7,0,0,0,7.432-2.192,13.7,13.7,0,0,0,7.432,2.192h195.85a13.806,13.806,0,0,0,13.791-13.791V366.572A6.36,6.36,0,0,0,427.786,360.212Zm-363.6-166.74a9.18,9.18,0,0,1-6.11-8.66c0-3.742,2.713-6.817,6.11-8.276Zm293.961,69.757-12.483,25.019-14.063-9.989c5.981-7.384,3.171-3.915,15.609-19.266Zm-35.74,6.171-16.448-20.3V243a51.289,51.289,0,0,0,16.526,2.7h0a47.018,47.018,0,0,0,16.333-2.967v6.4Zm7.467,23.236-2.339,3.521H317.287l-2.339-3.521,7.466-5.3ZM217.056,192.728l-16.447-20.3v-6.1a51.284,51.284,0,0,0,16.526,2.7h0a47.009,47.009,0,0,0,16.333-2.966v6.4Zm7.466,23.238-2.339,3.521H211.93l-2.339-3.521,7.466-5.3ZM166.974,129.33a22.742,22.742,0,0,0,3.193.61,46.976,46.976,0,0,0,17.722,29.585v10.837l-12.974,5.029a21.8,21.8,0,0,0-2.808-4.432V153.8A60.754,60.754,0,0,0,166.974,129.33Zm83.876-6.734a33.772,33.772,0,0,1-33.712,33.711c-20.9,0-34.871-16.2-34.871-33.711V92.806c20.082.8,40.944-5.148,58-15.764,5.735,6.149,9.147,9.722,10.584,11.38C250.851,104.256,250.851,110.37,250.851,122.6Zm12.135,7.34a22.882,22.882,0,0,0,3.176-.611,60.536,60.536,0,0,0-5.152,24.476v17.607a21.7,21.7,0,0,0-2.515,3.717l-12.3-4.764V158.778A46.447,46.447,0,0,0,262.986,129.936Zm-70.754,52.4,15.612,19.27L197.2,209.164l-.016.013-3.379,2.4-12.484-25.018Zm39.461,12.536,10.164-12.546,10.938,4.235-12.483,25.02-3.387-2.4-.01-.008-10.666-7.576Zm3.205,28.466.681.483a9.955,9.955,0,0,0,14.672-3.67h0l10.733-21.511a22.324,22.324,0,0,0,14.514,8A46.232,46.232,0,0,0,293.245,236.2v10.837L239.177,268l-6.894-40.726ZM297.588,259l15.612,19.27-14.042,9.975L286.674,263.23Zm58.618-59.735a33.779,33.779,0,0,1-33.711,33.711c-21.616,0-34.871-16.93-34.871-33.711v-29.79c19.938.8,40.827-5.077,58-15.764,5.735,6.149,9.147,9.722,10.584,11.38C356.206,180.927,356.206,187.042,356.206,199.268Zm18.833-14.456a9.182,9.182,0,0,1-6.11,8.659v-17.3A9.166,9.166,0,0,1,375.038,184.813ZM273.729,153.8a48.185,48.185,0,1,1,96.369,0v9.511c-.289-.06-1.085-.2-1.19-.214a7.327,7.327,0,0,0-1.52-4.3c-1.671-2.4-4.563-5.265-13.955-15.361a10.061,10.061,0,0,0-12.885-1.57c-15.67,10.236-35.468,16.018-54.306,14.795-5.292-.347-9.126,2.244-10.712,6.535-.142.023-1.712.34-1.8.361V153.8Zm1.174,22.737v16.927a9.161,9.161,0,0,1-6.11-8.652C268.792,181.07,271.5,178,274.9,176.537Zm-5.222-68.4a9.15,9.15,0,0,1-3.18,6.948,9.411,9.411,0,0,1-2.93,1.71V99.5A9.169,9.169,0,0,1,269.681,108.141Zm-53.123-79.2a48.239,48.239,0,0,1,48.185,48.185v9.511c-.287-.059-1.085-.2-1.191-.214a7.7,7.7,0,0,0-1.8-4.694c-1.7-2.3-4.842-5.473-13.674-14.967a10.056,10.056,0,0,0-12.885-1.57c-16.548,10.811-36.623,16.073-54.819,14.769a10.106,10.106,0,0,0-10.2,6.56c-.142.023-1.713.34-1.8.361V77.129h0A48.24,48.24,0,0,1,216.558,28.943ZM169.546,99.865V116.8a9.18,9.18,0,0,1-6.11-8.66C163.436,104.42,166.128,101.334,169.546,99.865Zm-11.332,76.307a9.185,9.185,0,0,1,0,17.293Zm-.589,30.457a22.3,22.3,0,0,0,15.115-8.774l11.123,22.292h0a9.954,9.954,0,0,0,14.671,3.67l.681-.483,2.614,3.935-6.891,40.715-54.1-20.953V235.453h0A46.486,46.486,0,0,0,157.625,206.628ZM111.7,269.4,95.252,249.1V243a51.265,51.265,0,0,0,16.527,2.7h0a47,47,0,0,0,16.333-2.966v6.4Zm7.467,23.236-2.339,3.521H106.574l-2.339-3.521,7.466-5.3ZM136.5,258.994l10.938,4.236-12.483,25.018-3.387-2.4-.01-.008-10.666-7.575Zm-59.59-59.725v-29.79c20.189.806,41.064-5.224,58-15.764,5.68,6.092,9.145,9.72,10.584,11.38v34.174a33.781,33.781,0,0,1-33.712,33.711C91.039,232.979,76.911,216.964,76.911,199.268ZM86.876,259l15.612,19.27-10.647,7.562-.016.013-3.379,2.4L75.962,263.23Zm-36.2,151.134V317.221a6.36,6.36,0,1,0-12.719,0v92.915H13.792a1.072,1.072,0,0,1-1.072-1.071V309.331c0-20.426,17.211-28.212,18.325-28.693l33-12.795,14.458,28.975h0a9.955,9.955,0,0,0,14.672,3.67l.681-.483,2.614,3.935L82.266,387.883c-.011.063-.02.126-.03.19a10.179,10.179,0,0,0,2.464,8.161l12.637,13.9H50.675Zm44.356-21.45,13.507-79.809h6.325l13.508,79.809L111.7,407.025Zm115.681,20.378a1.072,1.072,0,0,1-1.071,1.072H185.478V317.221a6.36,6.36,0,1,0-12.719,0v92.915h-46.7l12.639-13.9a10.169,10.169,0,0,0,2.462-8.16c-.009-.064-.019-.126-.03-.19L126.927,303.94l2.614-3.935.681.483a9.954,9.954,0,0,0,14.673-3.67h0l14.457-28.974,33.023,12.789a31.585,31.585,0,0,1,18.337,28.7v99.734Zm6.36-122.843A45.282,45.282,0,0,0,206.7,274.7l7.191-42.489h6.325l7.195,42.511A45.315,45.315,0,0,0,217.072,286.221Zm44.315,123.916h0V317.221a6.36,6.36,0,1,0-12.719,0v92.915H224.5a1.073,1.073,0,0,1-1.072-1.071V309.331a30.4,30.4,0,0,1,7.421-20.373,34.233,34.233,0,0,1,10.9-8.32l33-12.8,14.458,28.976h0a9.954,9.954,0,0,0,14.671,3.67l.681-.483,2.614,3.935-14.207,83.942c-.011.063-.02.126-.03.19a10.179,10.179,0,0,0,2.464,8.161l12.637,13.9H261.387Zm44.356-21.449,13.508-79.809h6.325l13.508,79.809-16.67,18.338Z" transform="translate(0 -16.224)" fill="#6f43ff"/>
        </g>
      </g>
    </g>
  </g>
</svg>
