<svg xmlns="http://www.w3.org/2000/svg" xmlns:xlink="http://www.w3.org/1999/xlink" width="27" height="28" viewBox="0 0 27 28">
  <defs>
    <clipPath id="clip-customer-icon">
      <rect width="27" height="28"/>
    </clipPath>
  </defs>
  <g id="customer-icon" clip-path="url(#clip-customer-icon)">
    <g id="specialist-user" transform="translate(-24.669 0.582)">
      <path id="Path_324" data-name="Path 324" d="M101.182,17.551c2.147,0,7.2-2.584,7.2-8.776,0-4.847-.654-8.775-7.2-8.775s-7.2,3.929-7.2,8.776C93.987,14.967,99.035,17.551,101.182,17.551Zm-6.12-10.24a3.959,3.959,0,0,1,3.95-2.057s1.4,3.4,8.281,1.873c.028.543.036,1.1.036,1.649a7.825,7.825,0,0,1-2.457,5.942,6.285,6.285,0,0,1-3.69,1.786,6.285,6.285,0,0,1-3.69-1.786,7.825,7.825,0,0,1-2.457-5.942C95.034,8.286,95.042,7.795,95.062,7.311Z" transform="translate(-63.149)" fill="#fff"/>
      <path id="Path_325" data-name="Path 325" d="M51.392,197.859c-.367-2.284-1.124-5.226-2.64-6.272-1.036-.714-4.65-2.645-6.193-3.469l-.027-.014a.5.5,0,0,0-.549.048,6.556,6.556,0,0,1-2.632,1.271.5.5,0,0,0-.362.313l-.955,2.518-.955-2.518a.5.5,0,0,0-.362-.313,6.556,6.556,0,0,1-2.632-1.271.5.5,0,0,0-.549-.048c-1.525.815-5.183,2.785-6.215,3.481-1.746,1.176-2.51,5.434-2.645,6.275a.505.505,0,0,0,.023.249c.062.176,1.665,0,13.336,0s13.273.176,13.336,0A.5.5,0,0,0,51.392,197.859Zm-5.378-1.394-2.284.712-2.284-.712v-1.229h4.569Z" transform="translate(0 -171.308)" fill="#fff"/>
    </g>
  </g>
</svg>
