<svg xmlns="http://www.w3.org/2000/svg" xmlns:xlink="http://www.w3.org/1999/xlink" width="937" height="994" viewBox="0 0 937 994">
  <defs>
    <clipPath id="clip-glow-blob">
      <rect width="937" height="994"/>
    </clipPath>
  </defs>
  <g id="glow-blob" clip-path="url(#clip-glow-blob)">
    <g id="Group_7" data-name="Group 7" transform="translate(-1024 -75)">
      <path id="Path_143" data-name="Path 143" d="M1522.585,82.764c-124.358,23.563-322.723-103.1-306.16,79.1S1054.472,229.956,991.9,312.772s82.817,114.1,27.605,224.525S940.37,748.939,1069.2,791.268,1107.843,966.1,1107.843,966.1h802.4l11.042-942.268S1796.37-7.071,1704.54,6.84C1653.88,14.514,1585.318,70.479,1522.585,82.764Z" transform="translate(57.911 81.847)" fill="#6fc1c7"/>
      <path id="Path_144" data-name="Path 144" d="M1522.585,82.764c-124.358,23.563-322.723-103.1-306.16,79.1S1054.472,229.956,991.9,312.772s82.817,114.1,27.605,224.525S940.37,748.939,1069.2,791.268s14.286,215.432,14.286,215.432l826.762-40.6,11.042-942.268S1796.37-7.071,1704.54,6.84C1653.88,14.514,1585.318,70.479,1522.585,82.764Z" transform="translate(57.911 81.847)" fill="#6fc1c7"/>
    </g>
  </g>
</svg>
