<svg xmlns="http://www.w3.org/2000/svg" xmlns:xlink="http://www.w3.org/1999/xlink" width="698" height="497" viewBox="0 0 698 497">
  <defs>
    <linearGradient id="linear-gradient" x1="0.5" y1="1" x2="0.5" gradientUnits="objectBoundingBox">
      <stop offset="0" stop-color="gray" stop-opacity="0.251"/>
      <stop offset="0.54" stop-color="gray" stop-opacity="0.122"/>
      <stop offset="1" stop-color="gray" stop-opacity="0.102"/>
    </linearGradient>
    <linearGradient id="linear-gradient-2" y2="0" xlink:href="#linear-gradient"/>
    <linearGradient id="linear-gradient-3" y2="0" xlink:href="#linear-gradient"/>
    <clipPath id="clip-img-1">
      <rect width="698" height="497"/>
    </clipPath>
  </defs>
  <g id="img-1" clip-path="url(#clip-img-1)">
    <g id="img-1-2" data-name="img-1" transform="translate(1 1.949)">
      <path id="Path_1" data-name="Path 1" d="M142.582,623.94c-2.832,5.746,1.248,11.947-.181,17.879-1.772,7.486-11.934,13.313-22.883,17.031s-23.176,5.977-33.85,9.982c-4.616,1.728-9.426,4.916-7.024,7.848a10.735,10.735,0,0,0,3.905,2.4c31.08,13.575,69.5,20.949,107.925,20.712,40.6-.256,80.364-8.734,120.932-7.761,52.328,1.248,102.934,18.129,154.67,13.263,21.966-2.065,42.371-7.954,63.751-11.628,31.454-5.409,64.537-5.952,97.108-7.729,24.461-1.335,52.4-4.8,64.1-17.811,8.447-9.408,4.9-21.835-7-29.8s-30.918-11.373-48.491-9.826c-9.445.83-18.834,2.982-28.273,2.127a80.983,80.983,0,0,1-15.546-3.444c-38.678-11.354-78.785-22.683-121.743-24.33-69.9-2.7-134.632,20.306-202.7,30.256-10.605,1.547-22.109,2.739-32.122.143-10.555-2.739-17.468-9.208-28.029-11.934-4.991-1.3-10.605-1.672-15.54-3.082-13.556-3.88-7.28-9.214-26.064-5.615C155.671,614.5,145.745,617.527,142.582,623.94Z" transform="translate(-56.292 -260.076)" fill="#00bfa6" opacity="0.1"/>
      <path id="Path_2" data-name="Path 2" d="M759.52,230.651s46.464-73.04,52.079-104.232a401.557,401.557,0,0,1,16.22-59.889" transform="translate(-312.647 -58.42)" fill="none" stroke="#535461" stroke-miterlimit="10" stroke-width="2"/>
      <path id="Path_3" data-name="Path 3" d="M868.321,166.53,839,169.025S854.6,195.851,868.321,166.53Z" transform="translate(-342.544 -96.036)" fill="#00bfa6"/>
      <path id="Path_4" data-name="Path 4" d="M803.386,140.53l23.22,18.6S796.524,171.1,803.386,140.53Z" transform="translate(-328.765 -86.256)" fill="#00bfa6"/>
      <path id="Path_5" data-name="Path 5" d="M876.081,125.53l-26.4,3.537S872.962,147.988,876.081,125.53Z" transform="translate(-346.562 -80.613)" fill="#00bfa6"/>
      <path id="Path_6" data-name="Path 6" d="M821.733,110.53l17.43,12.234S817.989,131.741,821.733,110.53Z" transform="translate(-335.882 -74.971)" fill="#00bfa6"/>
      <path id="Path_7" data-name="Path 7" d="M860.31,89.908s21.641-5.733,24.76-4.485,1.248,14.972-7.486,15.6S860.31,89.908,860.31,89.908Z" transform="translate(-350.56 -65.46)" fill="#00bfa6"/>
      <path id="Path_8" data-name="Path 8" d="M833.826,66.53s13.725,13.1,14.349,16.22-11.229,10.605-17.468,0S833.826,66.53,833.826,66.53Z" transform="translate(-338.618 -58.42)" fill="#00bfa6"/>
      <circle id="Ellipse_1" data-name="Ellipse 1" cx="6.238" cy="6.238" r="6.238" transform="translate(514.547 3.119)" fill="#ffd037"/>
      <circle id="Ellipse_2" data-name="Ellipse 2" cx="6.238" cy="6.238" r="6.238" transform="translate(503.318)" fill="#ffd037"/>
      <path id="Path_9" data-name="Path 9" d="M199.658,569.366s-19.851-52.1-4.248-92.8a84.476,84.476,0,0,0,2.707-53.37A142.074,142.074,0,0,0,188.71,399" transform="translate(-97.934 -183.48)" fill="none" stroke="#535461" stroke-miterlimit="10" stroke-width="2"/>
      <path id="Path_10" data-name="Path 10" d="M189.931,351.157c.505,6.538-9.85,26.407-9.85,26.407S166.773,359.536,166.268,353a11.87,11.87,0,1,1,23.669-1.84Z" transform="translate(-89.479 -161.365)" fill="#00bfa6"/>
      <path id="Path_11" data-name="Path 11" d="M226.261,402.78c-3.119,5.764-22.621,16.813-22.621,16.813s-1.366-22.365,1.759-28.129a11.869,11.869,0,0,1,20.868,11.317Z" transform="translate(-103.439 -178.308)" fill="#00bfa6"/>
      <path id="Path_12" data-name="Path 12" d="M229.531,499.349c-5.615,3.394-28.011,3.119-28.011,3.119s10.113-20,15.715-23.394a11.869,11.869,0,1,1,12.3,20.306Z" transform="translate(-102.753 -212.954)" fill="#00bfa6"/>
      <path id="Path_13" data-name="Path 13" d="M217.967,576.236c-4.953,4.292-27.087,7.779-27.087,7.779s6.588-21.423,11.535-25.715a11.87,11.87,0,1,1,15.552,17.935Z" transform="translate(-98.751 -242.31)" fill="#00bfa6"/>
      <path id="Path_14" data-name="Path 14" d="M161.564,432.761c5.041,4.192,27.243,7.212,27.243,7.212s-7.031-21.279-12.078-25.465a11.868,11.868,0,1,0-15.172,18.254Z" transform="translate(-86.11 -188.282)" fill="#00bfa6"/>
      <path id="Path_15" data-name="Path 15" d="M146.669,520.936c6.064,2.5,28.154-1.248,28.154-1.248s-13.1-18.2-19.14-20.687a11.869,11.869,0,1,0-9.015,21.959Z" transform="translate(-79.35 -220.761)" fill="#00bfa6"/>
      <path id="Path_16" data-name="Path 16" d="M146.98,610c5.558,3.475,27.967,3.506,27.967,3.506s-9.819-20.15-15.372-23.6a11.868,11.868,0,0,0-12.6,20.119Z" transform="translate(-80.142 -254.611)" fill="#00bfa6"/>
      <path id="Path_17" data-name="Path 17" d="M189.931,351.157c.505,6.538-9.85,26.407-9.85,26.407S166.773,359.536,166.268,353a11.87,11.87,0,1,1,23.669-1.84Z" transform="translate(-89.479 -161.365)" fill="#00bfa6"/>
      <path id="Path_18" data-name="Path 18" d="M226.261,402.78c-3.119,5.764-22.621,16.813-22.621,16.813s-1.366-22.365,1.759-28.129a11.869,11.869,0,0,1,20.868,11.317Z" transform="translate(-103.439 -178.308)" fill="#00bfa6"/>
      <path id="Path_19" data-name="Path 19" d="M229.531,499.349c-5.615,3.394-28.011,3.119-28.011,3.119s10.113-20,15.715-23.394a11.869,11.869,0,1,1,12.3,20.306Z" transform="translate(-102.753 -212.954)" fill="#00bfa6"/>
      <path id="Path_20" data-name="Path 20" d="M217.967,576.236c-4.953,4.292-27.087,7.779-27.087,7.779s6.588-21.423,11.535-25.715a11.87,11.87,0,1,1,15.552,17.935Z" transform="translate(-98.751 -242.31)" fill="#00bfa6"/>
      <path id="Path_21" data-name="Path 21" d="M161.564,432.761c5.041,4.192,27.243,7.212,27.243,7.212s-7.031-21.279-12.078-25.465a11.868,11.868,0,1,0-15.172,18.254Z" transform="translate(-86.11 -188.282)" fill="#00bfa6"/>
      <path id="Path_22" data-name="Path 22" d="M146.669,520.936c6.064,2.5,28.154-1.248,28.154-1.248s-13.1-18.2-19.14-20.687a11.869,11.869,0,1,0-9.015,21.959Z" transform="translate(-79.35 -220.761)" fill="#00bfa6"/>
      <path id="Path_23" data-name="Path 23" d="M146.98,610c5.558,3.475,27.967,3.506,27.967,3.506s-9.819-20.15-15.372-23.6a11.868,11.868,0,0,0-12.6,20.119Z" transform="translate(-80.142 -254.611)" fill="#00bfa6"/>
      <path id="Path_24" data-name="Path 24" d="M234.226,650.055s-15.06-1.815-19.339-5.459S192.3,635.413,190.7,640.51s-25,23.818-7.967,25.484,39.87.873,44.63-1.485S234.226,650.055,234.226,650.055Z" transform="translate(-93.362 -273.552)" fill="#a8a8a8"/>
      <path id="Path_25" data-name="Path 25" d="M182.615,671.111c17.037,1.659,39.845.88,44.636-1.478,3.649-1.8,5.7-9.233,6.476-12.683l.505.062s-2.046,12.09-6.862,14.454-27.6,3.119-44.636,1.479c-4.916-.48-6.463-2.383-6.139-4.991C177.163,669.608,178.953,670.756,182.615,671.111Z" transform="translate(-93.362 -280.51)" opacity="0.2"/>
      <path id="Path_26" data-name="Path 26" d="M696.365,342.911c-24.455,33.513-16.345,81.349-2.246,119.46,4.729,12.758,10.1,26.251,7.648,40.132-2.994,16.969-17.068,29.683-31.7,36.607-26.669,12.62-58.174,10.605-82.029-5.3-20.587-13.725-35.079-36.532-56.065-49.6-35.122-21.866-80.719-12.1-119.809,4.6-27.655,11.809-57.949,27.019-84.9,16.114-18.965-7.673-31.735-27.206-38.454-48.086-3.244-10.081-5.515-21.024-11.978-28.915-3.843-4.691-8.921-7.96-14.143-10.693-47.656-24.954-108.955-9.358-155.156-37.2-31.192-18.8-50.606-55.291-58.673-93.652s-6.07-78.854-2.857-118.655c2.283-28.285,5.9-58.51,22.9-80.738,17.985-23.506,48.13-32.852,75.086-29.165S195.112,76.5,216.261,94.34c26.445,22.309,50.775,50.3,83.664,58.747,22.4,5.764,46.2,1.684,69.49-.119,38.928-3.007,77.719.455,116.272,4.367,36.907,3.743,74.069,7.923,109.023,20.194,24.735,8.684,44.343,25.1,67.631,36.314,15.178,7.311,31.879,9.008,46.165,18.453,17.63,11.635,33.563,32.247,28.391,56.982C732.012,312.792,709.341,325.125,696.365,342.911Z" transform="translate(-43.2 -54.851)" fill="#00bfa6" opacity="0.1"/>
      <path id="Path_27" data-name="Path 27" d="M649.247,135H241.939A15.927,15.927,0,0,0,226,150.908V388.281a15.927,15.927,0,0,0,15.939,15.908H405.96v58.5H390.527a3.805,3.805,0,0,0-3.805,3.8v7.885h119.7v-7.9a3.805,3.805,0,0,0-3.805-3.8H482.912v-58.5H649.247a15.927,15.927,0,0,0,15.939-15.889V150.908A15.927,15.927,0,0,0,649.247,135Z" transform="translate(-111.961 -84.175)" fill="url(#linear-gradient)"/>
      <rect id="Rectangle_16" data-name="Rectangle 16" width="75.654" height="73.002" transform="translate(295.004 308.915)" fill="#474059"/>
      <rect id="Rectangle_17" data-name="Rectangle 17" width="75.654" height="6.476" transform="translate(295.004 375.442)" opacity="0.1"/>
      <path id="Path_28" data-name="Path 28" d="M446.3,603h110.2a3.743,3.743,0,0,1,3.743,3.743v7.786H442.56v-7.786A3.743,3.743,0,0,1,446.3,603Z" transform="translate(-166.471 -226.822)" fill="#474059"/>
      <rect id="Rectangle_18" data-name="Rectangle 18" width="431.794" height="265.196" rx="25.12" transform="translate(118.075 53.32)" fill="#474059"/>
      <rect id="Rectangle_19" data-name="Rectangle 19" width="412.704" height="216.649" transform="translate(127.164 84.294)" fill="#fff"/>
      <ellipse id="Ellipse_3" data-name="Ellipse 3" cx="3.637" cy="3.593" rx="3.637" ry="3.593" transform="translate(329.883 69.509)" fill="#fff"/>
      <rect id="Rectangle_20" data-name="Rectangle 20" width="75.417" height="1.422" transform="translate(295.166 318.697)" opacity="0.1"/>
      <path id="Path_29" data-name="Path 29" d="M599.142,269.75a86.091,86.091,0,0,0,30.88,148.968l24.055-82.684Z" transform="translate(-240.593 -134.862)" fill="#d6d6e3"/>
      <path id="Path_30" data-name="Path 30" d="M675.876,238a85.735,85.735,0,0,0-54.936,19.807l54.936,66.284,45.491-73.1A85.679,85.679,0,0,0,675.876,238Z" transform="translate(-260.52 -122.919)" fill="#d6d6e3"/>
      <path id="Path_31" data-name="Path 31" d="M694.5,376,670.44,458.678a86.14,86.14,0,0,0,110.146-81.162Z" transform="translate(-279.14 -174.829)" fill="#8499f0"/>
      <rect id="Rectangle_21" data-name="Rectangle 21" width="31.192" height="18.715" transform="translate(163.946 159.374)" fill="#8499f0"/>
      <rect id="Rectangle_22" data-name="Rectangle 22" width="31.192" height="18.715" transform="translate(163.946 191.814)" fill="#fc6681"/>
      <rect id="Rectangle_23" data-name="Rectangle 23" width="31.192" height="18.715" transform="translate(163.946 224.253)" fill="#00bfa6"/>
      <rect id="Rectangle_24" data-name="Rectangle 24" width="58.641" height="7.486" transform="translate(211.982 164.988)" fill="#d6d6e3"/>
      <rect id="Rectangle_25" data-name="Rectangle 25" width="58.641" height="7.486" transform="translate(211.982 197.428)" fill="#d6d6e3"/>
      <rect id="Rectangle_26" data-name="Rectangle 26" width="58.641" height="7.486" transform="translate(211.982 229.868)" fill="#d6d6e3"/>
      <rect id="Rectangle_27" data-name="Rectangle 27" width="412.985" height="7.486" transform="translate(127.14 83.888)" fill="#d6d6e3"/>
      <circle id="Ellipse_4" data-name="Ellipse 4" cx="1.872" cy="1.872" r="1.872" transform="translate(130.259 85.76)" fill="#fc6681"/>
      <circle id="Ellipse_5" data-name="Ellipse 5" cx="1.872" cy="1.872" r="1.872" transform="translate(135.25 85.76)" fill="#ffc74c"/>
      <circle id="Ellipse_6" data-name="Ellipse 6" cx="1.872" cy="1.872" r="1.872" transform="translate(140.24 85.76)" fill="#85d459"/>
      <path id="Path_32" data-name="Path 32" d="M949.994,594.55s2.976,3.893-1.372,9.769-7.935,10.836-6.488,14.5c0,0,6.563-10.917,11.909-11.067S955.877,601.113,949.994,594.55Z" transform="translate(-381.216 -257.037)" fill="#00bfa6"/>
      <path id="Path_33" data-name="Path 33" d="M950.1,594.55a4.821,4.821,0,0,1,.624,1.248c5.215,6.126,7.991,11.853,2.982,11.984-4.666.131-10.269,8.478-11.61,10.605a4.513,4.513,0,0,0,.156.48s6.563-10.917,11.909-11.067S955.987,601.113,950.1,594.55Z" transform="translate(-381.326 -257.037)" opacity="0.1"/>
      <path id="Path_34" data-name="Path 34" d="M963.386,601.969c0,1.372-.156,2.5-.343,2.5s-.343-1.11-.343-2.5.193-.724.381-.724S963.386,600.6,963.386,601.969Z" transform="translate(-389.075 -259.496)" fill="#ffd037"/>
      <path id="Path_35" data-name="Path 35" d="M965.436,604.553c-1.2.655-2.252,1.054-2.339.886s.811-.836,2.015-1.491.73-.181.817,0S966.64,603.9,965.436,604.553Z" transform="translate(-389.222 -260.446)" fill="#ffd037"/>
      <path id="Path_36" data-name="Path 36" d="M925.7,594.55s-2.976,3.893,1.372,9.769,7.935,10.836,6.488,14.5c0,0-6.563-10.917-11.909-11.067S919.823,601.113,925.7,594.55Z" transform="translate(-372.643 -257.037)" fill="#00bfa6"/>
      <path id="Path_37" data-name="Path 37" d="M925.694,594.55a4.824,4.824,0,0,0-.624,1.248c-5.215,6.126-7.991,11.853-2.982,11.984,4.666.131,10.268,8.478,11.61,10.605a4.526,4.526,0,0,1-.156.48s-6.563-10.917-11.909-11.067S919.818,601.113,925.694,594.55Z" transform="translate(-372.637 -257.037)" opacity="0.1"/>
      <path id="Path_38" data-name="Path 38" d="M920.86,601.969c0,1.372.156,2.5.343,2.5s.343-1.11.343-2.5-.193-.724-.38-.724S920.86,600.6,920.86,601.969Z" transform="translate(-373.336 -259.496)" fill="#ffd037"/>
      <path id="Path_39" data-name="Path 39" d="M917.379,604.553c1.2.655,2.252,1.054,2.34.886s-.811-.836-2.015-1.491-.73-.181-.817,0S916.175,603.9,917.379,604.553Z" transform="translate(-371.752 -260.446)" fill="#ffd037"/>
      <path id="Path_40" data-name="Path 40" d="M955.62,630.033s-8.185-1.634-10.368-3.818-12.009-6-13.1-3.275-14.735,12.009-5.459,13.643,21.835,2.184,24.561,1.092S955.62,630.033,955.62,630.033Z" transform="translate(-374.321 -267.361)" fill="#a8a8a8"/>
      <path id="Path_41" data-name="Path 41" d="M926.693,640.38c9.276,1.634,21.834,2.183,24.561,1.092,2.077-.83,3.525-4.822,4.092-6.681l.274.056s-1.634,6.55-4.367,7.642-15.284.543-24.561-1.092c-2.676-.474-3.444-1.585-3.157-2.988C923.767,639.319,924.7,640.03,926.693,640.38Z" transform="translate(-374.322 -272.174)" opacity="0.2"/>
      <path id="Path_42" data-name="Path 42" d="M824.577,416.6a93.508,93.508,0,0,0-44.131-79.453L731,416.6l93.577,1.647Z" transform="translate(-301.92 -160.215)" fill="url(#linear-gradient-2)"/>
      <path id="Path_43" data-name="Path 43" d="M823.091,415.456a86.028,86.028,0,0,0-40.6-73.1L737,415.456,823.091,417Z" transform="translate(-304.177 -162.175)" fill="#00bfa6"/>
      <path id="Path_44" data-name="Path 44" d="M986.381,276.929a3.407,3.407,0,0,0-.069-.692q-.069-.331-.125-.761-.137-.749-.306-1.447-.087-.349-.181-.686a18.568,18.568,0,0,0-3.612-7.037l-.293-.337q-.293-.324-.574-.624a7.343,7.343,0,0,0-.555-.536c-.181-.168-.362-.324-.53-.468-.343-.287-.661-.524-.948-.724s-.406-.274-.574-.374a3.186,3.186,0,0,0-1.347-.449l-2.969-.3h0l-4.018-.4-14.51-5.727-.574.206a34.517,34.517,0,0,1-1.073-3.624,3.231,3.231,0,0,0,1.148-.848,2.656,2.656,0,0,0,.786-1.029c.362-.855-.337-2.689-.193-3.743a18.184,18.184,0,0,1,1.784-4.822,22.726,22.726,0,0,0,2.4-10.4,11.775,11.775,0,0,0-4.766-9.233c-1.541-1.036-3.356-1.591-4.953-2.539-1.248-.736-2.346-1.7-3.537-2.527a20.013,20.013,0,0,0-19.963-1.454c-3.013,1.51-5.583,3.743-8.428,5.577s-6.195,3.2-9.52,2.67a2.19,2.19,0,0,0-.1.418l-.281-.037c-.574,1.591.83,3.157,2.127,4.242,2.458,2.059,5.24,4.111,8.447,4.186,1.248,0,2.545-.237,3.674.281a3.275,3.275,0,0,1,.686.437,16.413,16.413,0,0,0,4.966,16.189L921,247.608s-.312.162-.786.468l-10.287-6.956s-20.618-7.648-26.345,4.2,24.823,5.708,24.823,5.708l6.538,3.65a6.152,6.152,0,0,0,.717,3.98l17.823,11.2c-3.6,1.129-9.52,2.932-10.568,2.932-1.529,0-5.727,1.528-8.4,7.636s-12.221,35.9-20.618,40.856-30.568,38.186-30.568,38.186l.1.262q-.593.156-1.16.349a23.459,23.459,0,0,0-11.51,8.827,3.743,3.743,0,0,0,2.583,5.9c8.734,1.123,13.519-2.97,15.814-6.064.15-.2.287-.4.418-.586a3.025,3.025,0,0,0,2.158.1l10.705-8.771s-8.341,8.359-3.462,15.989l-.374.53a122.478,122.478,0,0,0-17.929,39.627s-4.585,3.437-4.991,17.181-4.991,35.9-4.991,35.9-3.057,26.345-1.148,34.368c0,0,.218.318.624.8-.143.175-.3.356-.474.549-1.666,1.828-4.672,4.367-8.172,3.606-5.346-1.148-5.346,8.4,2.289,9.164,4.916.493,14.586,2.726,20.843,4.255a4.417,4.417,0,0,0,5.446-4.76,41.063,41.063,0,0,0-2.29-10.506c-.075-.181-.156-.362-.237-.536.225-.212.449-.43.674-.668,0,0,0-16.8,2.67-21.385,0,0,7.255-34.748,6.862-43.532-.3-6.862,18.821-33.631,27.144-44.917l-.069-.43c2.2-2.92,3.556-4.666,3.556-4.666l6.494,41.623s3.057,9.164,6.862,14.13c0,0,16.42,31.691,18.328,41.623,1.447,7.53,4.429,11.978,5.789,13.693-.156.162-.324.324-.5.487-1.734,1.622-4.3,3.244-7.2,2.626-5.346-1.148-5.346,8.4,2.289,9.164,4.916.493,14.586,2.726,20.843,4.255a4.417,4.417,0,0,0,5.446-4.76c-.43-3.974-1.285-8.915-2.932-11.853q-.212-.368-.437-.692a4.037,4.037,0,0,0,1.516-1.086s-9.925-24.055-9.925-30.568c0,0-4.2-24.823-18.329-33.987,0,0,1.335-31.043,5.359-48.317q.15-.624.306-1.248a111.842,111.842,0,0,0,11.142-2.358l.381-11.454,1.909,9.164,21.385-13.363s-.187-2.408-.549-6.1c-.181-1.872-.405-4.011-.674-6.363-.212-1.871-.455-3.874-.724-5.914q-.1-.767-.206-1.535c-.281-2.059-.586-4.142-.917-6.176q-.187-1.148-.387-2.271c-.175-1-.356-1.978-.543-2.926q-.143-.711-.287-1.4t-.293-1.36q-.15-.668-.306-1.3l-.156-.624q-.156-.624-.318-1.21a22.189,22.189,0,0,1-.774-4.991q-.037-1.011,0-2.015a18.194,18.194,0,0,1,.187-2.009q.069-.5.162-1a23.006,23.006,0,0,1,1.085-3.9q.356-.954.8-1.872c.692-1.441,1.435-3.007,2.2-4.654q.574-1.248,1.16-2.527t1.173-2.62c3.743-8.416,7.386-17.8,8.366-23.962.106-.624.175-1.248.218-1.834a12.466,12.466,0,0,0,.037-1.641Z" transform="translate(-342.074 -114.024)" fill="url(#linear-gradient-3)"/>
      <path id="Path_45" data-name="Path 45" d="M950.292,270.445l-12.6-8.522s-20-7.405-25.578,4.074,24.074,5.558,24.074,5.558l12.6,7.037Z" transform="translate(-369.786 -131.034)" fill="#f7bbc3"/>
      <path id="Path_46" data-name="Path 46" d="M1017.72,681.6c-6.076-1.479-15.446-3.65-20.219-4.124-7.405-.742-7.405-9.982-2.221-8.89,2.813.624,5.3-.973,6.987-2.545a16.355,16.355,0,0,0,1.472-1.572,4.28,4.28,0,0,1,2.4-1.466c2.776-.624,8.559-1.522,12.115.393a5.228,5.228,0,0,1,1.915,2.1c1.6,2.832,2.427,7.623,2.845,11.479a4.286,4.286,0,0,1-5.29,4.623Z" transform="translate(-399.958 -282.497)" fill="#b77983"/>
      <path id="Path_47" data-name="Path 47" d="M867.52,687.536c-6.076-1.479-15.446-3.649-20.219-4.124-7.4-.742-7.4-9.981-2.221-8.89,3.394.73,6.313-1.722,7.929-3.493.193-.218.374-.424.53-.624a4.28,4.28,0,0,1,2.4-1.466c2.776-.624,8.559-1.522,12.115.393a6.618,6.618,0,0,1,2.539,3.387,39.168,39.168,0,0,1,2.221,10.194,4.286,4.286,0,0,1-5.29,4.623Z" transform="translate(-343.46 -284.732)" fill="#b77983"/>
      <path id="Path_48" data-name="Path 48" d="M877.554,672.712c-8.846,9.114-16.426-.168-17.574-1.7.193-.218.374-.424.53-.624a4.28,4.28,0,0,1,2.4-1.466c2.776-.624,8.559-1.522,12.115.393A6.7,6.7,0,0,1,877.554,672.712Z" transform="translate(-350.436 -284.724)" opacity="0.1"/>
      <path id="Path_49" data-name="Path 49" d="M1026.572,665.491c-3.83,2.62-16.732,1.971-16.732,1.971a12.677,12.677,0,0,1-1.16-1.435,16.348,16.348,0,0,0,1.472-1.572,4.279,4.279,0,0,1,2.4-1.466c2.776-.624,8.559-1.522,12.115.393A5.227,5.227,0,0,1,1026.572,665.491Z" transform="translate(-406.37 -282.494)" opacity="0.1"/>
      <path id="Path_50" data-name="Path 50" d="M970.845,589.655c-2.6,3.331-17.405,2.6-17.405,2.6s-4.442-4.442-6.295-14.074S929.4,537.8,929.4,537.8c-3.706-4.816-6.669-13.725-6.669-13.725l-6.295-40.369s-30.4,40.013-30.032,48.541-6.669,42.222-6.669,42.222c-2.6,4.442-2.6,20.743-2.6,20.743-9.632,9.982-17.78-1.871-17.78-1.871-1.872-7.779,1.111-33.332,1.111-33.332s4.442-21.479,4.816-34.817,4.847-16.65,4.847-16.65a118.8,118.8,0,0,1,17.393-38.416,61.438,61.438,0,0,1,3.743-4.916l59.964,7.037a37.885,37.885,0,0,0-2.583,7.948c-3.9,16.756-5.2,46.869-5.2,46.869,13.725,8.89,17.78,32.964,17.78,32.964C961.213,566.323,970.845,589.655,970.845,589.655Z" transform="translate(-349.97 -208.386)" fill="#605d82"/>
      <g id="Group_1" data-name="Group 1" transform="translate(517.298 256.818)" opacity="0.05">
        <path id="Path_51" data-name="Path 51" d="M918.238,499.825l-.767-4.935s-30.344,39.995-30,48.523-6.669,42.222-6.669,42.222c-2.6,4.442-2.6,20.743-2.6,20.743a12.707,12.707,0,0,1-5.8,3.743c2.92.767,6.463.206,10.244-3.743,0,0,0-16.295,2.6-20.743,0,0,7.037-33.688,6.669-42.222C891.624,536.756,910.171,510.786,918.238,499.825Z" transform="translate(-872.41 -476.368)"/>
        <path id="Path_52" data-name="Path 52" d="M981.155,560.018s-4.074-24.074-17.78-32.964c0,0,1.3-30.107,5.2-46.87a37.884,37.884,0,0,1,2.583-7.948l-60-7.037-.393.474,55.953,6.563a37.877,37.877,0,0,0-2.583,7.948c-3.9,16.756-5.2,46.869-5.2,46.869,13.724,8.89,17.779,32.964,17.779,32.964,0,6.295,9.632,29.633,9.632,29.633-1.528,1.965-7.305,2.5-11.784,2.633,3.556.094,14.086.125,16.22-2.633C990.762,589.651,981.155,566.319,981.155,560.018Z" transform="translate(-886.836 -465.2)"/>
      </g>
      <path id="Path_53" data-name="Path 53" d="M880.781,453.095a13.413,13.413,0,0,1-1.753,3.069c-2.227,3-6.862,6.968-15.34,5.883a3.643,3.643,0,0,1-2.5-5.727,22.817,22.817,0,0,1,11.167-8.559,20.119,20.119,0,0,1,4.729-.961Z" transform="translate(-350.638 -201.461)" fill="#f7bbc3"/>
      <path id="Path_54" data-name="Path 54" d="M996.868,284.311l-29.7-10.861s-8.522,4.442-5.184,10.743l28.89,18.148Z" transform="translate(-388.513 -136.254)" fill="#d9d9ea"/>
      <path id="Path_55" data-name="Path 55" d="M996.868,284.311l-29.7-10.861s-8.522,4.442-5.184,10.743l28.89,18.148Z" transform="translate(-388.513 -136.254)" opacity="0.1"/>
      <path id="Path_56" data-name="Path 56" d="M1010.389,261.718s-.368,17.405,7.405,23.332-22.6,9.258-22.6,9.258,4.816-17.78,0-27.037S1010.389,261.718,1010.389,261.718Z" transform="translate(-401.018 -131.566)" fill="#f7bbc3"/>
      <path id="Path_57" data-name="Path 57" d="M968.579,472.254A37.882,37.882,0,0,0,966,480.2c-35.821,5.471-60.75-9.433-60.75-9.433-.137-.212-.268-.43-.387-.624a61.433,61.433,0,0,1,3.743-4.916Z" transform="translate(-367.318 -208.393)" opacity="0.1"/>
      <path id="Path_58" data-name="Path 58" d="M887.918,453.095a13.411,13.411,0,0,1-1.753,3.069c-3.431-.568-6.17-7.124-6.675-8.4a20.12,20.12,0,0,1,4.729-.961Z" transform="translate(-357.775 -201.461)" opacity="0.1"/>
      <path id="Path_59" data-name="Path 59" d="M970.744,287.1l-13.331,4.816-5.559,7.405s-11.479,3.706-12.964,3.706-5.558,1.479-8.147,7.405-11.853,34.817-20,39.633S881.11,387.1,881.11,387.1s3.706,9.982,8.147,8.522l10.375-8.522s-8.147,8.147-3.331,15.559c0,0,30.369,18.148,72.223,7.037l.368-11.111,1.872,8.89,20.7-12.97s-1.872-23.906-5.2-36.077a21.985,21.985,0,0,1,1.429-15.328c5.378-11.229,13.675-29.945,12.664-36.751-1.191-8.041-5.739-11.535-7.486-12.6a3.12,3.12,0,0,0-1.3-.43l-6.744-.674Z" transform="translate(-358.384 -141.389)" fill="#d9d9ea"/>
      <path id="Path_60" data-name="Path 60" d="M960.362,346.76s-7.411,34.461-15.559,40-30,23.332-30.743,26.3" transform="translate(-370.779 -163.83)" opacity="0.05"/>
      <path id="Path_61" data-name="Path 61" d="M955.016,345s-7.405,34.436-15.552,39.988-30,23.332-30.743,26.3" transform="translate(-368.77 -163.168)" fill="#d9d9ea"/>
      <path id="Path_62" data-name="Path 62" d="M994.21,302.371s25.578-8.522,32.964-6.295" transform="translate(-400.927 -144.625)" opacity="0.1"/>
      <g id="Group_2" data-name="Group 2" transform="translate(611.112 145.711)" opacity="0.05">
        <path id="Path_63" data-name="Path 63" d="M1041.5,346.694c5.378-11.229,13.675-29.945,12.664-36.751-1.192-8.041-5.739-11.535-7.486-12.6a3.119,3.119,0,0,0-1.3-.43l-2.882-.287a3.044,3.044,0,0,1,.855.349c1.734,1.061,6.282,4.548,7.486,12.6,1.011,6.825-7.286,25.54-12.664,36.751a21.985,21.985,0,0,0-1.429,15.328c3.344,12.165,5.2,36.077,5.2,36.077l-17.861,11.161.455,2.171,20.705-12.97s-1.872-23.906-5.2-36.077a21.984,21.984,0,0,1,1.46-15.322Z" transform="translate(-1023.275 -290.685)"/>
        <path id="Path_64" data-name="Path 64" d="M991.58,238.754l3.207.324-13.949-5.509-1.248.449Z" transform="translate(-979.59 -233.57)"/>
      </g>
      <path id="Path_65" data-name="Path 65" d="M982.93,399.444s11.479-6.295,15.184-4.816,17.405-.368,17.405-.368" transform="translate(-396.684 -181.697)" opacity="0.05"/>
      <path id="Path_66" data-name="Path 66" d="M1009.163,267.251c-.424-3.743,1.3-3.119,1.3-3.119s-20.013-3.731-15.209,5.527a21.334,21.334,0,0,1,2.059,8.147h.187C1003.049,277.807,1006.293,271.593,1009.163,267.251Z" transform="translate(-401.039 -132.47)" opacity="0.05"/>
      <circle id="Ellipse_7" data-name="Ellipse 7" cx="15.927" cy="15.927" r="15.927" transform="translate(580.506 112.005)" fill="#f7bbc3"/>
      <path id="Path_67" data-name="Path 67" d="M998.5,249.677a22.03,22.03,0,0,0,2.327-10.088,11.438,11.438,0,0,0-4.622-8.958c-1.5-1-3.257-1.547-4.8-2.464-1.21-.717-2.277-1.647-3.431-2.452a19.414,19.414,0,0,0-19.389-1.41c-2.926,1.466-5.415,3.649-8.172,5.409s-6.008,3.119-9.239,2.589c-.555,1.541.8,3.063,2.065,4.117,2.383,2,5.084,3.993,8.191,4.061,1.2,0,2.5-.231,3.562.274a5.115,5.115,0,0,1,1.822,1.691,33.1,33.1,0,0,1,3.774,6.407,5.406,5.406,0,0,0,1.691,2.5c1.429.917,3.288.156,4.991.087,2.639-.1,4.991,1.56,6.962,3.331s3.812,3.805,6.276,4.741c1.871.7,5.521.674,6.457-1.522.356-.83-.324-2.608-.187-3.618A16.26,16.26,0,0,1,998.5,249.677Z" transform="translate(-384.691 -117.035)" opacity="0.1"/>
      <path id="Path_68" data-name="Path 68" d="M999.094,249.087A22.032,22.032,0,0,0,1001.421,239a11.438,11.438,0,0,0-4.623-8.958c-1.5-1-3.256-1.547-4.8-2.464-1.21-.717-2.277-1.647-3.431-2.452a19.414,19.414,0,0,0-19.389-1.41c-2.926,1.466-5.415,3.65-8.172,5.409s-6.008,3.119-9.239,2.589c-.555,1.541.8,3.063,2.065,4.117,2.383,2,5.084,3.993,8.191,4.061,1.2,0,2.5-.231,3.562.275a5.115,5.115,0,0,1,1.822,1.691,33.1,33.1,0,0,1,3.8,6.4,5.4,5.4,0,0,0,1.691,2.5c1.429.917,3.288.156,4.991.087,2.639-.1,4.991,1.56,6.962,3.331s3.812,3.805,6.276,4.741c1.872.7,5.521.674,6.457-1.522.356-.83-.324-2.608-.187-3.618A16.371,16.371,0,0,1,999.094,249.087Z" transform="translate(-384.913 -116.813)" fill="#a1616a"/>
    </g>
  </g>
</svg>
