<svg xmlns="http://www.w3.org/2000/svg" xmlns:xlink="http://www.w3.org/1999/xlink" width="19" height="21" viewBox="0 0 19 21">
  <defs>
    <clipPath id="clip-mb-icon">
      <rect width="19" height="21"/>
    </clipPath>
  </defs>
  <g id="mb-icon" clip-path="url(#clip-mb-icon)">
    <g id="analysis" transform="translate(0.159)">
      <path id="Path_389" data-name="Path 389" d="M19.5,1H17.116v9.484h-.6V2.355H14.132v8.129h-.6V3.71H11.147v6.774h-.6V5.065H8.163V8.452H1.9A.963.963,0,0,0,1,9.468v5.081l.922,5.525A2.18,2.18,0,0,0,3.974,22H14.142a2.18,2.18,0,0,0,2.052-1.927l.917-5.461.005-1.08V11.161H19.5ZM14.729,3.032h1.194v7.452H14.729ZM11.744,4.387h1.194v6.1H11.744Zm3.581,6.774v1.355h-.9a1.377,1.377,0,0,0-2.372,0H6.066a1.437,1.437,0,0,0-1.186-.677,1.437,1.437,0,0,0-1.186.677h-.9V10.484H8.163v.677ZM6.342,13.194h5.432a1.918,1.918,0,0,0,0,.677H6.342a1.918,1.918,0,0,0,0-.677Zm-.276,1.355H12.05a1.615,1.615,0,0,0,.291.33v1.365a.961.961,0,0,1-.894,1.015H6.669a.961.961,0,0,1-.894-1.015V14.879a1.617,1.617,0,0,0,.291-.33Zm-1.186,0a1.024,1.024,0,0,1,0-2.032,1.024,1.024,0,0,1,0,2.032Zm-.3.643a1.319,1.319,0,0,0,.6,0v1.052a1.6,1.6,0,0,0,1.491,1.692h4.778a1.6,1.6,0,0,0,1.491-1.692V15.192a1.319,1.319,0,0,0,.6,0v1.389a1.925,1.925,0,0,1-1.791,2.032H6.372a1.925,1.925,0,0,1-1.791-2.032Zm8.655-.643a1.024,1.024,0,1,1,.9-1.016A.963.963,0,0,1,13.236,14.548ZM8.76,5.742H9.953v4.742H8.76ZM1.6,9.468a.321.321,0,0,1,.3-.339H8.163v.677H2.194v3.387H3.418a1.918,1.918,0,0,0,0,.677H1.9a.321.321,0,0,1-.3-.339ZM15.608,19.946a1.557,1.557,0,0,1-1.466,1.377H3.974a1.557,1.557,0,0,1-1.466-1.377L1.6,14.516v-.03a.787.787,0,0,0,.3.063h1.8a1.615,1.615,0,0,0,.291.33v1.7a2.567,2.567,0,0,0,2.388,2.71h5.372a2.567,2.567,0,0,0,2.388-2.71v-1.7a1.615,1.615,0,0,0,.291-.33h1.8a.793.793,0,0,0,.3-.062v.03Zm.911-6.414a.321.321,0,0,1-.3.339H14.7a1.918,1.918,0,0,0,0-.677h1.224V11.161h.6Zm2.388-3.048H17.713V1.677h1.194Z" transform="translate(-1 -1)" fill="#fff"/>
      <path id="Path_390" data-name="Path 390" d="M41.015,52.835a.376.376,0,0,1-.369.305H38v.752h2.646a1.128,1.128,0,0,0,1.108-.917l.385-2.021-.739-.141Z" transform="translate(-27.578 -34.397)" fill="#fff"/>
      <path id="Path_391" data-name="Path 391" d="M34,57h.752v.752H34Z" transform="translate(-24.237 -38.257)" fill="#fff"/>
      <path id="Path_392" data-name="Path 392" d="M2.128,7.394A1.13,1.13,0,0,0,3.257,6.266a1.117,1.117,0,0,0-.18-.607L4.408,3.947a1.081,1.081,0,0,0,1.025-.166L7.056,4.862a1.127,1.127,0,1,0,2.219.275,1.105,1.105,0,0,0-.052-.319l2.422-1.761a1.127,1.127,0,1,0-.49-.929,1.113,1.113,0,0,0,.051.318L8.784,4.208a1.113,1.113,0,0,0-1.311.029L5.852,3.156a1.1,1.1,0,0,0,.038-.275,1.128,1.128,0,0,0-2.257,0,1.118,1.118,0,0,0,.18.607L2.481,5.2a1.111,1.111,0,0,0-.353-.062,1.128,1.128,0,0,0,0,2.257ZM12.284,1.752a.376.376,0,1,1-.376.376A.376.376,0,0,1,12.284,1.752ZM8.146,4.761a.376.376,0,1,1-.376.376A.376.376,0,0,1,8.146,4.761ZM4.761,2.5a.376.376,0,1,1-.376.376A.376.376,0,0,1,4.761,2.5ZM2.128,5.89a.376.376,0,1,1-.376.376A.376.376,0,0,1,2.128,5.89Z" transform="translate(-1 -1)" fill="#fff"/>
    </g>
  </g>
</svg>
