<svg xmlns="http://www.w3.org/2000/svg" xmlns:xlink="http://www.w3.org/1999/xlink" width="514" height="471" viewBox="0 0 514 471">
  <defs>
    <clipPath id="clip-mb-illustration">
      <rect width="514" height="471"/>
    </clipPath>
  </defs>
  <g id="mb-illustration" clip-path="url(#clip-mb-illustration)">
    <path id="Path_548" data-name="Path 548" d="M-2659.935,3043.19c-21.225,4.9-246.532,75.1-269.39-45.715s-80-132.246-11.429-220.41,310.207-117.552,346.125-60.409,228.573,262.859,66.939,292.247S-2659.935,3043.19-2659.935,3043.19Z" transform="translate(2977 -2598.181)" fill="#eceffe"/>
    <g id="analysis" transform="translate(92.659 1.729)">
      <path id="Path_389" data-name="Path 389" d="M396.031,1H345.059V179.4H332.316V26.486H281.344V179.4H268.6V51.972H217.63V179.4H204.887V77.458H153.915v63.715H20.114A19.138,19.138,0,0,0,1,160.287v95.572L20.681,359.783a44.641,44.641,0,0,0,43.81,36.247H281.567a44.646,44.646,0,0,0,43.81-36.247l19.567-102.727.115-20.312v-44.6h50.972ZM294.087,39.229h25.486V179.4H294.087ZM230.373,64.715h25.486V179.4H230.373ZM306.83,192.144V217.63H287.55a31.527,31.527,0,0,0-50.64,0H109.149a31.527,31.527,0,0,0-50.64,0H39.229V179.4H153.915v12.743ZM115.043,230.373H231.016a31.865,31.865,0,0,0,0,12.743H115.043a31.864,31.864,0,0,0,0-12.743Zm-5.894,25.486H236.9a31.988,31.988,0,0,0,6.206,6.206v25.671a19.1,19.1,0,0,1-19.083,19.1H122.032a19.111,19.111,0,0,1-19.089-19.089V262.071a32.02,32.02,0,0,0,6.206-6.212Zm-25.32,0a19.114,19.114,0,1,1,19.114-19.114,19.138,19.138,0,0,1-19.114,19.114Zm-6.371,12.1a31.862,31.862,0,0,0,12.743,0v19.783a31.866,31.866,0,0,0,31.832,31.832H224.027a31.866,31.866,0,0,0,31.832-31.832V267.958a31.862,31.862,0,0,0,12.743,0v26.129a38.267,38.267,0,0,1-38.229,38.229H115.686a38.267,38.267,0,0,1-38.229-38.229Zm184.772-12.1a19.114,19.114,0,1,1,19.114-19.114A19.138,19.138,0,0,1,262.23,255.858ZM166.658,90.2h25.486v89.2H166.658ZM13.743,160.287a6.374,6.374,0,0,1,6.371-6.371h133.8v12.743H26.486v63.715H52.615a31.864,31.864,0,0,0,0,12.743h-32.5a6.374,6.374,0,0,1-6.371-6.371ZM312.858,357.394a31.878,31.878,0,0,1-31.29,25.894H64.492A31.883,31.883,0,0,1,33.2,357.394L13.743,255.253v-.573a18.749,18.749,0,0,0,6.371,1.179H58.509a31.988,31.988,0,0,0,6.206,6.206v32.023a51.031,51.031,0,0,0,50.972,50.972H230.373a51.031,51.031,0,0,0,50.972-50.972V262.064a31.989,31.989,0,0,0,6.206-6.206h38.394a18.9,18.9,0,0,0,6.371-1.172v.573Zm19.458-120.65a6.374,6.374,0,0,1-6.371,6.371h-32.5a31.862,31.862,0,0,0,0-12.743h26.129V192.144h12.743ZM383.288,179.4H357.8V13.743h25.486Z" transform="translate(-1 -1)" fill="#771dff"/>
      <path id="Path_390" data-name="Path 390" d="M89.08,85.06a6.371,6.371,0,0,1-6.257,5.174H38v12.743H82.823a19.116,19.116,0,0,0,18.77-15.534l6.518-34.24-12.52-2.389Z" transform="translate(197.744 266.569)" fill="#771dff"/>
      <path id="Path_391" data-name="Path 391" d="M34,57H46.743V69.743H34Z" transform="translate(176.258 299.802)" fill="#771dff"/>
      <path id="Path_392" data-name="Path 392" d="M20.114,109.315A19.138,19.138,0,0,0,39.229,90.2a18.923,18.923,0,0,0-3.052-10.277l22.561-29a18.319,18.319,0,0,0,17.369-2.81l27.474,18.318a19.088,19.088,0,1,0,37.592,4.658,18.722,18.722,0,0,0-.873-5.4l41.032-29.838a19.1,19.1,0,1,0-8.3-15.738,18.859,18.859,0,0,0,.867,5.39L132.864,55.349a18.862,18.862,0,0,0-22.2.484L83.186,37.515a18.715,18.715,0,0,0,.644-4.658,19.114,19.114,0,0,0-38.229,0,18.939,18.939,0,0,0,3.052,10.277l-22.561,29a18.815,18.815,0,0,0-5.976-1.051,19.114,19.114,0,1,0,0,38.229Zm172.03-95.572a6.371,6.371,0,1,1-6.371,6.371A6.374,6.374,0,0,1,192.144,13.743ZM122.058,64.715a6.371,6.371,0,1,1-6.371,6.371A6.374,6.374,0,0,1,122.058,64.715ZM64.715,26.486a6.371,6.371,0,1,1-6.371,6.371A6.374,6.374,0,0,1,64.715,26.486Zm-44.6,57.343A6.371,6.371,0,1,1,13.743,90.2,6.374,6.374,0,0,1,20.114,83.829Z" transform="translate(-1 -1)" fill="#771dff"/>
    </g>
  </g>
</svg>
