<svg xmlns="http://www.w3.org/2000/svg" xmlns:xlink="http://www.w3.org/1999/xlink" width="23" height="18" viewBox="0 0 23 18">
  <defs>
    <clipPath id="clip-s-icon">
      <rect width="23" height="18"/>
    </clipPath>
  </defs>
  <g id="s-icon" clip-path="url(#clip-s-icon)">
    <g id="customer" transform="translate(0.626 -0.083)">
      <g id="Group_59" data-name="Group 59" transform="translate(7.085 0)">
        <g id="Group_58" data-name="Group 58" transform="translate(0 0)">
          <path id="Path_398" data-name="Path 398" d="M159.085,60.478h-1.492v-.57a2.238,2.238,0,1,0-2.983,0v.57h-1.492A1.12,1.12,0,0,0,152,61.6v4.1a.373.373,0,0,0,.373.373h7.458a.373.373,0,0,0,.373-.373V61.6A1.12,1.12,0,0,0,159.085,60.478Zm.373,4.848h-6.712V61.6a.373.373,0,0,1,.373-.373h1.864a.373.373,0,0,0,.373-.373V59.732a.373.373,0,0,0-.149-.3,1.492,1.492,0,1,1,1.789,0,.373.373,0,0,0-.149.3v1.119a.373.373,0,0,0,.373.373h1.864a.373.373,0,0,1,.373.373Z" transform="translate(-152 -56.004)" fill="#fff"/>
        </g>
      </g>
      <g id="Group_61" data-name="Group 61" transform="translate(0 1.492)">
        <g id="Group_60" data-name="Group 60" transform="translate(0 0)">
          <path id="Path_399" data-name="Path 399" d="M4.623,91.436a.373.373,0,0,0-.149.3v1.119a.373.373,0,0,0,.373.373H6.339V92.48H5.22v-.57a2.238,2.238,0,1,0-2.983,0v.57H1.119A1.12,1.12,0,0,0,0,93.6v2.61a.373.373,0,0,0,.373.373H6.339v-.746H.746V93.6a.373.373,0,0,1,.373-.373H2.61a.373.373,0,0,0,.373-.373V91.734a.373.373,0,0,0-.149-.3,1.492,1.492,0,1,1,1.789,0Z" transform="translate(0 -88.005)" fill="#fff"/>
        </g>
      </g>
      <g id="Group_63" data-name="Group 63" transform="translate(16.034 1.492)">
        <g id="Group_62" data-name="Group 62" transform="translate(0 0)">
          <path id="Path_400" data-name="Path 400" d="M349.22,92.483H348.1v-.57a2.238,2.238,0,1,0-2.983,0v.57H344v.746h1.492a.373.373,0,0,0,.373-.373V91.737a.373.373,0,0,0-.149-.3,1.491,1.491,0,0,1-.054-2.344,1.491,1.491,0,1,1,1.843,2.344.373.373,0,0,0-.149.3v1.119a.373.373,0,0,0,.373.373h1.492a.373.373,0,0,1,.373.373v2.237H344v.746h5.966a.373.373,0,0,0,.373-.373V93.6A1.12,1.12,0,0,0,349.22,92.483Z" transform="translate(-344 -88.009)" fill="#fff"/>
        </g>
      </g>
      <g id="Group_65" data-name="Group 65" transform="translate(4.475 10.814)">
        <g id="Group_64" data-name="Group 64" transform="translate(0 0)">
          <path id="Path_401" data-name="Path 401" d="M111.661,288.743V288h-8.949a.373.373,0,0,0-.373.373,1.867,1.867,0,0,0,1.864,1.864h1.119v.417l-2.592.324-3.187-.708-.669-.669a1.957,1.957,0,0,0-2.765,0,.373.373,0,0,0,0,.527l2.61,2.61a.373.373,0,0,0,.125.083l3.729,1.492a.373.373,0,0,0,.139.027.368.368,0,0,0,.061-.005l4.444-.741h4.444v-.746h-2.983v-4.1Zm-3.729,4.1h-.746a.363.363,0,0,0-.061.005l-4.372.729-3.561-1.424L96.941,289.9a1.211,1.211,0,0,1,1.4.222l.746.746a.37.37,0,0,0,.183.1l3.356.746a.365.365,0,0,0,.127.006l2.983-.373a.373.373,0,0,0,.327-.37v-1.119a.373.373,0,0,0-.373-.373H104.2a1.121,1.121,0,0,1-1.055-.746h4.784Z" transform="translate(-95.999 -287.997)" fill="#fff"/>
        </g>
      </g>
    </g>
  </g>
</svg>
