<svg xmlns="http://www.w3.org/2000/svg" xmlns:xlink="http://www.w3.org/1999/xlink" width="472" height="438" viewBox="0 0 472 438">
  <defs>
    <clipPath id="clip-s-illustration">
      <rect width="472" height="438"/>
    </clipPath>
  </defs>
  <g id="s-illustration" clip-path="url(#clip-s-illustration)">
    <path id="Path_550" data-name="Path 550" d="M-2685.787,3013.838c-19.474,4.494-226.2,68.909-247.174-41.945s-73.4-121.34-10.486-202.233,284.625-107.858,317.581-55.427,209.723,241.181,61.419,268.146S-2685.787,3013.838-2685.787,3013.838Z" transform="translate(2974 -2603.147)" fill="#eceffe"/>
    <g id="segment" transform="translate(49.593)">
      <path id="Path_513" data-name="Path 513" d="M193.058,0C86.436,0,0,86.436,0,193.058S86.436,386.115,193.058,386.115,386.115,299.68,386.115,193.058C385.995,86.487,299.629.12,193.058,0ZM373.245,193.058a179.067,179.067,0,0,1-21.076,84.45l-90.516-52.274h72.98V186.622A57.517,57.517,0,0,0,305.6,136.427l-2.28-1.287h18.446V96.528a45.047,45.047,0,0,0-90.094,0V135.14H250.1l-2.267,1.287A58.038,58.038,0,0,0,218.8,186.622v13.866l-19.306-11.151V13.031A180.38,180.38,0,0,1,373.245,193.057Zm-122.27-109.4v32.176a25.21,25.21,0,0,0,.915,6.435h-7.35V96.529a32.176,32.176,0,0,1,64.353,0V122.27h-7.35a25.209,25.209,0,0,0,.915-6.435V83.658Zm38.612,12.871v19.306a12.871,12.871,0,0,1-25.741,0V96.529ZM259.869,135.14a25.267,25.267,0,0,0,33.695,0h6.654l-23.5,23.167-23.5-23.167Zm16.847,41.186L303.249,150.2a43.423,43.423,0,0,1,5.329,4.5,45.013,45.013,0,0,1,13.185,31.92v25.741H308.892V186.622H296.022v25.741H257.41V186.622H244.54v25.741h-5.148l-7.722-4.439v-21.3A45.125,45.125,0,0,1,250.2,150.238ZM77.223,55.182V96.529a25.741,25.741,0,0,0,51.482,0V89.174A32.047,32.047,0,0,0,152.7,65.723l3.557-14.241H81.8A179.176,179.176,0,0,1,186.623,13.031V189.357l-19.306,11.154V167.317A45.1,45.1,0,0,0,122.27,122.27H83.659a45.1,45.1,0,0,0-45.047,45.047v57.917h85.841L33.939,277.5A179.828,179.828,0,0,1,77.224,55.182Zm44.255,22.041H90.094V64.353h49.551A19.27,19.27,0,0,1,121.478,77.223ZM90.094,90.094h25.741v6.435a12.871,12.871,0,0,1-25.741,0Zm56.63,122.27h-5.148V167.317H128.705v45.047H77.223V167.317H64.353v45.047H51.482V167.317A32.216,32.216,0,0,1,83.658,135.14h5.581l-5.922,47.37,19.648,19.648,19.648-19.648-5.922-47.37h5.581a32.216,32.216,0,0,1,32.176,32.176v40.6ZM103.718,135.14l5.339,42.724-6.093,6.093-6.093-6.093,5.339-42.724Zm63.6,236.239V334.633H154.446v34.4q-6.523-1.425-12.87-3.328V334.633a32.216,32.216,0,0,1,32.176-32.176h5.581l-5.922,47.37,19.648,19.648,19.648-19.648-5.922-47.37h5.581a32.216,32.216,0,0,1,32.176,32.176v31.075q-6.338,1.931-12.87,3.328v-34.4H218.8V371.38a178.431,178.431,0,0,1-51.482,0Zm26.5-68.923,5.339,42.724-6.093,6.093-6.093-6.093,5.339-42.724Zm63.6,58.862V334.633a45.1,45.1,0,0,0-45.047-45.047H173.752a45.1,45.1,0,0,0-45.047,45.047v26.686a181.151,181.151,0,0,1-88.3-72.7l152.651-88.133L345.7,288.654A181.119,181.119,0,0,1,257.41,361.319Zm0,0" fill="#6f43ff"/>
      <path id="Path_514" data-name="Path 514" d="M314.353,382.176a32.176,32.176,0,1,0-32.176,32.176A32.177,32.177,0,0,0,314.353,382.176Zm-32.176,19.306a19.306,19.306,0,1,1,19.306-19.306A19.308,19.308,0,0,1,282.176,401.482Zm0,0" transform="translate(-89.119 -124.766)" fill="#6f43ff"/>
    </g>
  </g>
</svg>
