<svg xmlns="http://www.w3.org/2000/svg" xmlns:xlink="http://www.w3.org/1999/xlink" width="582" height="471" viewBox="0 0 582 471">
  <defs>
    <clipPath id="clip-sf-illustration">
      <rect width="582" height="471"/>
    </clipPath>
  </defs>
  <g id="sf-illustration" clip-path="url(#clip-sf-illustration)">
    <g id="undraw_predictive_analytics_kf9n" transform="translate(0 0.153)">
      <path id="Path_355" data-name="Path 355" d="M92.105,0,53.753,74.8H61.5v61H22.478L0,179.647l278.518,142.8L370.624,142.8Z" fill="#f2f2f2"/>
      <rect id="Rectangle_148" data-name="Rectangle 148" width="427.004" height="214.228" transform="translate(84.007 48.661)" fill="#3f3d56"/>
      <rect id="Rectangle_149" data-name="Rectangle 149" width="315.17" height="0.726" transform="translate(143.919 125.639)" fill="#6c63ff" opacity="0.3"/>
      <rect id="Rectangle_150" data-name="Rectangle 150" width="315.17" height="0.726" transform="translate(144.282 143.794)" fill="#6c63ff" opacity="0.3"/>
      <rect id="Rectangle_151" data-name="Rectangle 151" width="315.17" height="0.726" transform="translate(144.282 180.103)" fill="#6c63ff" opacity="0.3"/>
      <rect id="Rectangle_152" data-name="Rectangle 152" width="315.17" height="0.726" transform="translate(144.282 196.08)" fill="#6c63ff" opacity="0.3"/>
      <rect id="Rectangle_153" data-name="Rectangle 153" width="315.17" height="0.726" transform="translate(144.282 161.949)" fill="#6c63ff" opacity="0.3"/>
      <ellipse id="Ellipse_38" data-name="Ellipse 38" cx="135.073" cy="12.345" rx="135.073" ry="12.345" transform="translate(276.449 445.165)" fill="#3f3d56"/>
      <path id="Path_356" data-name="Path 356" d="M210.344,242.7l-1-1.052,46.913-44.714,41.354,29.746,33.442-37.077,14.664,12.464L385.6,178.139l44.308,29.781,69.541-39.555.717,1.262-70.323,40-44.288-29.768-39.992,24-14.384-12.226-33.368,37-41.432-29.8Z" transform="translate(-57.318 -46.099)" fill="#6c63ff"/>
      <path id="Path_357" data-name="Path 357" d="M597.027,712.818c3.413,12.617,15.1,20.431,15.1,20.431s6.157-12.642,2.744-25.259-15.1-20.431-15.1-20.431S593.614,700.2,597.027,712.818Z" transform="translate(-308.904 -280.117)" fill="#3f3d56"/>
      <path id="Path_358" data-name="Path 358" d="M595.5,714.881c9.366,9.117,10.51,23.132,10.51,23.132s-14.041-.767-23.406-9.884S572.091,705,572.091,705,586.132,705.765,595.5,714.881Z" transform="translate(-302.358 -284.891)" fill="#6c63ff"/>
      <circle id="Ellipse_39" data-name="Ellipse 39" cx="24.328" cy="24.328" r="24.328" transform="translate(531.345 14.53)" fill="#6c63ff" opacity="0.4"/>
      <circle id="Ellipse_40" data-name="Ellipse 40" cx="17.066" cy="17.066" r="17.066" transform="translate(493.582 33.411)" fill="#6c63ff" opacity="0.4"/>
      <circle id="Ellipse_41" data-name="Ellipse 41" cx="9.077" cy="9.077" r="9.077" transform="translate(480.511 354.391)" fill="#6c63ff" opacity="0.4"/>
      <circle id="Ellipse_42" data-name="Ellipse 42" cx="6.899" cy="6.899" r="6.899" transform="translate(328.009 403.772)" fill="#6c63ff" opacity="0.4"/>
      <circle id="Ellipse_43" data-name="Ellipse 43" cx="9.077" cy="9.077" r="9.077" transform="translate(302.593 310.093)" fill="#6c63ff" opacity="0.4"/>
      <circle id="Ellipse_44" data-name="Ellipse 44" cx="9.441" cy="9.441" r="9.441" transform="translate(432.219 116.561)" fill="#6c63ff"/>
      <path id="Path_359" data-name="Path 359" d="M720.76,535.172l-8,.889s-3.557,16.006,0,37.348,8,42.683,8,42.683,3.557,69.36,5.335,70.249,17.785,6.225,18.674.889.889-127.16.889-127.16l12.449,58.689s1.778,73.806,5.335,73.806,15.117-.889,15.117-7.114,2.668-88.034,2.668-88.034-.889-60.468-4.446-62.246S720.76,535.172,720.76,535.172Z" transform="translate(-340.44 -238.176)" fill="#2f2e41"/>
      <path id="Path_360" data-name="Path 360" d="M729.564,739.813s-8-.889-9.781,0-4.446,7.114,0,10.671,16.006,8.892,19.563,8.892a18.4,18.4,0,0,0,7.114-1.778l-1.779-15.117Z" transform="translate(-342.13 -294.315)" fill="#2f2e41"/>
      <path id="Path_361" data-name="Path 361" d="M783.149,743.669l.889,12.449s11.56,1.779,12.449,0,9.781-6.225,10.671-7.114,1.778-10.671-3.557-11.56-7.114,1.778-7.114,1.778Z" transform="translate(-360.147 -293.725)" fill="#2f2e41"/>
      <path id="Path_362" data-name="Path 362" d="M673.163,432.612s-21.341,20.452-18.674,31.123S678.5,505.529,678.5,505.529s20.452,10.671,23.12,0-14.228-8-14.228-8l-13.339-32.012,15.117-21.341Z" transform="translate(-324.856 -210.311)" fill="#ffb8b8"/>
      <path id="Path_363" data-name="Path 363" d="M807.626,363.409s19.441-12.5,18.991-21.091-12.17-35.671-12.17-35.671-9.168-19.062-12.813-11.272,4.791,16.083,4.791,16.083l5.445,26.566-14.8,14.116Z" transform="translate(-363.959 -172.223)" fill="#ffb8b8"/>
      <circle id="Ellipse_45" data-name="Ellipse 45" cx="16.006" cy="16.006" r="16.006" transform="translate(379.43 141.381)" fill="#ffb8b8"/>
      <path id="Path_364" data-name="Path 364" d="M734.169,354.574l2.668,16.9,19.563-3.557s-.889-16.9-.889-18.674S734.169,354.574,734.169,354.574Z" transform="translate(-346.736 -187.405)" fill="#ffb8b8"/>
      <path id="Path_365" data-name="Path 365" d="M723.893,378.48s22.231-5.335,24.9-3.557S764.8,378.48,764.8,378.48l15.117,23.12-4.446,29.345s-.889,47.129.889,55.132,11.56,8.892-8.892,10.671-24.009-.889-38.237,2.668S703.44,497.637,707,494.08s9.781-60.468,2.668-65.8-9.781-32.9-9.781-32.9S723.893,382.927,723.893,378.48Z" transform="translate(-337.348 -194.416)" fill="#d0cde1"/>
      <path id="Path_366" data-name="Path 366" d="M785.6,380.615l2.668-2.668,5.335-5.335s17.34,7.558,16.451,10.226-6.669,18.229-6.669,18.229l-8,2.668Z" transform="translate(-360.817 -193.883)" fill="#d0cde1"/>
      <path id="Path_367" data-name="Path 367" d="M703.513,405l-10.671-1.778s-8,8.892-10.671,12.449-8,12.449-8,12.449l18.674,13.338,14.228-15.117Z" transform="translate(-330.307 -202.265)" fill="#d0cde1"/>
      <path id="Path_368" data-name="Path 368" d="M743.276,314.961l-.164-1.282a10.079,10.079,0,0,0-3.2.5,5.263,5.263,0,0,1,.2-2.3,10.246,10.246,0,0,0-2.965,1.289l-.647-2.34-8.889,4.381c-3.191,1.573-6.555,3.3-8.379,6.355-2.034,3.4-1.68,7.781-.29,11.5s3.7,7,5.552,10.509a26.251,26.251,0,0,0,2.523,4.294c3.355,4.183,9.887,5.028,14.618,2.5a8.459,8.459,0,0,0,4.051-4.168,27.09,27.09,0,0,0,.809-3.452c.585-2.39,1.265-7.324,3.206-8.837.854-.665,2.548,1.54,3.256.721,1.819-2.106,1.438-5.353.308-7.9a57.615,57.615,0,0,0-3.793-7.4C748.854,318.382,743.256,314.808,743.276,314.961Z" transform="translate(-342.253 -176.966)" fill="#2f2e41"/>
      <rect id="Rectangle_154" data-name="Rectangle 154" width="46.477" height="46.477" transform="translate(9.209 83.519)" fill="#3f3d56"/>
    </g>
  </g>
</svg>
